<svg id="Layer_1" data-name="Layer 1" xmlns="http://www.w3.org/2000/svg" width="584.5721" height="181.2632" viewBox="0 0 584.5721 181.2632"><title>ARTHA-lettering-01</title><path d="M0,178.8782v-8.1089H12.64L53.9019,2.3856h9.54l41.2615,168.3837h16.306v8.1089H63.68v-8.1089h24.089L73.9364,114.2439H34.5829L20.9885,170.7693H37.6834v8.1089ZM54.14,32.9141,36.4909,106.6113H72.0284Z"/><path d="M213.9381,181.2632q-10.0179,0-15.3838-6.7972t-5.3662-17.7688V112.8129q0-13.1146-4.8892-18.2458-4.8916-5.1262-19.4383-5.1277H157.412v81.33h19.7961v8.1089H120.6827v-8.1089h20.0345V10.4946H120.6827V2.3856h54.8559q17.8883,0,28.5011,6.678,10.6095,6.6792,15.2646,16.6949a46.742,46.742,0,0,1,4.6507,19.796q0,15.9816-9.7784,26.2354Q204.3935,82.0477,188.18,85.385l-1.1925.2385v1.431l1.1925.2385q10.4916,2.1463,15.9794,7.6319,5.4842,5.4891,5.4855,17.888v41.9763q0,2.3874.3577,6.0817a13.2627,13.2627,0,0,0,2.2664,6.44q1.9056,2.7441,6.2009,2.7428,5.4832,0,7.155-4.4122a26.4519,26.4519,0,0,0,1.6695-9.4214V114.9594h7.1549v41.9763a36.7536,36.7536,0,0,1-1.7887,10.9716,20.38,20.38,0,0,1-6.201,9.54Q222.0433,181.26,213.9381,181.2632ZM157.412,81.8068h14.0721q15.9758,0,24.4467-6.0817,8.463-6.0816,8.4667-22.0617V40.546q0-15.9757-8.4667-23.2542-8.469-7.2729-24.4467-7.2742H157.412Z"/><path d="M250.1905,178.8782v-7.6319h33.1518V10.7331H269.27q-17.6525,0-19.7953,17.1718l-3.34,25.52h-6.6779V0H243.75l7.1556,2.3856h81.5684L339.6292,0h4.293V53.4249h-6.678l-3.3389-25.52q-2.1465-17.1718-19.796-17.1718H300.0372V171.2463H333.19v7.6319Z"/><path d="M351.3163,178.8782v-8.1089h15.7415V10.4946H351.3163V2.3856H398.54v8.109H382.7987V79.66H433.6V10.4946H417.8592V2.3856h47.2233v8.109H449.3417V170.7693h15.7408v8.1089H417.8592v-8.1089H433.6V87.293H382.7987v83.4763H398.54v8.1089Z"/><path d="M464.6055,178.8782v-8.1089h12.64L518.5074,2.3856h9.54l41.2609,168.3837h15.2639v8.1089H528.2858v-8.1089h24.09l-13.8355-56.5254H499.1884L485.594,170.7693h16.6949v8.1089Zm54.14-145.9641-17.6495,73.6972h35.5375Z"/></svg>