<svg id="Layer_1" data-name="Layer 1" xmlns="http://www.w3.org/2000/svg" width="14.8806in" height="11.1514in" viewBox="0 0 1071.4 802.9"><defs><style>.cls-1{fill:#c4e5cc;}.cls-2{fill:#22cf57;}</style></defs><title>earth-logo-fo-green</title><rect class="cls-1" width="1071.4" height="802.9"/><circle class="cls-2" cx="535.8" cy="401.5" r="177.2"/><path class="cls-2" d="M535.8,567.8c-90.9-.2-166-73.4-166.2-166.1a166.25,166.25,0,1,1,332.5-.5C702.2,492.2,628.8,567.4,535.8,567.8ZM478.6,321.7c.2,1.8.4,3.3.6,4.7.6,3.8.5,7.7,2.8,11,.2.3.1.7.1,1.1,0,4,.1,7.9.1,11.9,0,1.4.6,2.3,2,2.3,1.6,0,1.7,1.1,1.9,2.2.2,1.3.1,2.6-1.4,3.3-3.8,1.7-6.4,1.2-9.2-1.9,1.1-2.5,2.1-5,3.1-7.4a.9984.9984,0,0,1-.5-.4,16.3158,16.3158,0,0,0-1.9.9c-2.1,1.3-4.3,2.3-6.9,1.4a5.6644,5.6644,0,0,0-2.6-.1,4.4182,4.4182,0,0,0-1.6.6,3.9236,3.9236,0,0,0,.8,1.4c2,2,4,4,6,5.9,1.2,1.2,1.2,3.3-.2,3.8-3.9,1.4-7.5,3.9-12,3.4a6.8247,6.8247,0,0,0-2.3.5,2.4889,2.4889,0,0,0-2.4,2.3,5.2482,5.2482,0,0,1-3.8,4.4,8.6035,8.6035,0,0,0-5.7,5.3,30.66,30.66,0,0,1-10,12.8,12.61,12.61,0,0,0-2.5,3.1c-1,1.4-.9,2.7-.2,4.3a32.8841,32.8841,0,0,1,2.1,6c.2.8-.4,1.8-.7,2.6-.3,0-.6.1-.9.1a30.519,30.519,0,0,1-2.8-5c-1-2.5-1.9-4.8-4.6-6.2-2.5-1.3-5.4-.9-6.6,1.7-.4.9-1,1-1.9.9a44.2889,44.2889,0,0,0-5.1-.6,6.6755,6.6755,0,0,0-7.2,5.3,5.6451,5.6451,0,0,1-.4,1.2c-1.5,4.6-1.7,9.1.3,13.6a7.0718,7.0718,0,0,0,1.2,1.8,9.3644,9.3644,0,0,0,6.9,1.7c2.1-.2,2.5-2,3.2-3.4,1.1-2.5,3.2-2.8,6.1-3.1a72.4439,72.4439,0,0,1-2.5,7.1c-1.2,2.5-.4,4.1,2.3,4.2,1.1,0,2.2.1,3.3,0,1.6-.1,2.4.3,2.4,2.1a34.2826,34.2826,0,0,0,.7,5.6c.4,3.6,2.5,5,6,4.2a4.5666,4.5666,0,0,1,2-.2,7.905,7.905,0,0,0,5.6-1.4c1.6-1.1,3.1-2.3,4.7-3.4.4-.3,1.1-.6,1.5-.4a46.1584,46.1584,0,0,0,14.7,2.8,7.1154,7.1154,0,0,1,5.6,2.6,23.2686,23.2686,0,0,0,3.9,3.8c1.3,1,2.9,2.2,4.5,2.2,3.6.1,5.6,2.3,7.8,4.5a24.8759,24.8759,0,0,0,5.2,4c5,2.6,10.1,4.9,15.1,7.5a48.5728,48.5728,0,0,1,6.8,4.3,3.8933,3.8933,0,0,1,1.5,4.2c-.8,3.9-1.7,7.7-2.3,11.6-.7,4.5-1.1,9-1.7,13.4a4.1955,4.1955,0,0,1-.9,1.9c-2.1,2.1-4.4,4.1-6.4,6.3a7.3389,7.3389,0,0,0-1.8,3.5,44.149,44.149,0,0,0-1.7,8.8,4.6966,4.6966,0,0,1-3.2,4.7c-1,.4-1.1,1-.7,2a7.4728,7.4728,0,0,1,.6,3.9c-.9,4.5-2,9-3.1,13.5a18.0306,18.0306,0,0,0-.5,1.9,2.7311,2.7311,0,0,0,1.5,3.5,3.2035,3.2035,0,0,1,1.9,2.9,14.7293,14.7293,0,0,0,1.1,4.6,2.5414,2.5414,0,0,0,1.6,1.6c4.1,1,8.2,1.9,12.4,2.6a154.939,154.939,0,0,0,45.1.9,148.1492,148.1492,0,0,0,37.7-9.6,155.7807,155.7807,0,0,0,62.1-44.5,152.5206,152.5206,0,0,0,29.4-52.8,167.9013,167.9013,0,0,0,6.9-32.2,9.66,9.66,0,0,0-1.9-7.2,35.916,35.916,0,0,0-10.5-9.3,10.1681,10.1681,0,0,0-2.8-1.3,84.7312,84.7312,0,0,0-11.2-2c-5.7-.6-11.3-1.3-16.2-4.5-.3-.2-.8-.1-1.4-.2a7.8406,7.8406,0,0,0,4.1,5.6q6.75,3.3,13.8,6.3c2.4,1.1,2.8,1.8,1.7,4.3a17.6483,17.6483,0,0,1-6.9,7.9,75.4949,75.4949,0,0,1-18.1,8.7q-2.85.9-1.2,3.3a2.288,2.288,0,0,0,2.9,1.1q4.05-1.35,8.1-2.4c.6-.1,1.8.2,1.8.4.1,1.4.4,3.1-.2,4.1-2.7,4.4-5.7,8.6-8.6,13-3,4.5-6.1,8.9-8.8,13.5-1.9,3.1-3,6.4-1.8,10.3a9.8,9.8,0,0,1-1.9,8.8c-2.2,2.9-4.1,6-6,9a9.7342,9.7342,0,0,0-1.1,2.3,30.8666,30.8666,0,0,1-1.4,4.3c-2.9,4.7-6,9.3-9.2,13.9a6.41,6.41,0,0,1-2.5,2.1c-2.5,1.3-5,2.6-7.6,3.7a11.0155,11.0155,0,0,1-4.1.5c-1.3.1-1.9-.7-2.3-1.9-2.1-6.6-3.9-13.4-6.4-19.8-2.3-5.7-3.1-11.3-1.3-17.2a13.32,13.32,0,0,0-.9-9.6c-1.1-2.3-2-4.7-3.2-7-1.6-3.2-2.9-6.3-1.3-9.9a1.7018,1.7018,0,0,0,.1-.7c.3-2.4-.6-3.5-3-3.9a27.13,27.13,0,0,1-4.1-.9,14.4172,14.4172,0,0,0-8.5-.6c-4.1,1-8.3,1.1-12.5,1.4a4.7708,4.7708,0,0,1-2.9-1.1c-3.5-3.2-6.8-6.5-10.2-9.8a11.048,11.048,0,0,1-3.5-7.5,81.4344,81.4344,0,0,0-.3-8.6c-.5-3.5.5-6.4,2-9.4,1.9-3.7,4.1-6.9,7.9-8.9a1.7844,1.7844,0,0,0,.9-1.2c0-2.7,1.4-4.6,3-6.5a28.8193,28.8193,0,0,0,2.6-3.5c1.4-2.3,1.2-3-1-4.7a11.5111,11.5111,0,0,1-1.7-1.4c-1.9-1.7-2.6-3.7-1.5-6.1.9-2,1.9-4,2.8-5.9a3.2182,3.2182,0,0,1,3.4-2,13.6077,13.6077,0,0,0,4-.4c1.6-.3,2-1.1,1.3-2.6-1.2-2.4-2.3-4.8-3.5-7.4a6.1067,6.1067,0,0,0,1.4-.7c2.7-1.4,5.3-2.7,7.9-4.2.5-.3.6-1.4.8-2.1a7.3128,7.3128,0,0,0-1.9-.7c-2.9.2-5.3,1.7-7.6,3.3a14.19,14.19,0,0,1-1.8,1.1c-.1-.5-.2-.8-.1-1,.4-3.4.3-6.8,2.4-9.8.6-.9,1.3-2.1-.3-2.9-3.7-1.9-3.7-6.1-.3-8.9a3.5108,3.5108,0,0,1,1,.8c.8,1.1,2.3,1.7,2.2,3.6a8.2971,8.2971,0,0,0,1,4.1c1,1.8,2.3,3.4,3.4,5.2a4.2822,4.2822,0,0,1,.6,2.2c0,1.3.5,1.8,1.6,1.1,2.3-1.6,4.5-3.4,6.9-5.1a8.4952,8.4952,0,0,1,3.2-1.5c4.4-.7,8.8-1.3,13.2-1.9a3.3207,3.3207,0,0,0,3.1-2.6,9.2461,9.2461,0,0,0,.4-2.9c.2-2.6,2.9-6.5,5.3-7.4,1.4-.5,1.7-1.5.6-2.4a5.3221,5.3221,0,0,0-2.9-1.2c-4.1-.6-5.5-2.7-4.4-6.6.6-2.1,1.2-4.2,1.7-6.4.1-.4-.2-1-.3-1.5-.5.2-1.1.2-1.4.5a6.1951,6.1951,0,0,0-1.4,1.4c-1.1,2.3-2.1,4.7-3,7-1.1,2.8-1.5,5.6.5,8.3a3.161,3.161,0,0,1,.3,2.7,39.641,39.641,0,0,1-3.5,6.8c-.6.9-2.3,1.2-3.5,1.4-.4.1-1.1-.9-1.4-1.5-.8-1.3-1.5-2.7-2.4-3.9-.8-1.2-1.8-1.7-3.2-.6a1.6911,1.6911,0,0,1-2.7-.3c-1.8-2.8-2.9-5.8-1.9-9.2a2.6819,2.6819,0,0,1,2-2.1c2.6-.9,4.9-2.3,5.9-5.1.8-2.2,1.5-4.5,2.2-6.8,1.1-3.5,1.6-7.1,4.5-10,3.6-3.6,7.6-5.7,12.7-5.5a2.6687,2.6687,0,0,1,2.5,1.3,8.4915,8.4915,0,0,0,3.5,2.7c3,1.5,6.3,2.5,9,4.3,1.7,1.2,2.9,1.7,4.7.9.8-.4,1.6-.6,2.3-1,4.4-2.7,8.7-5.4,13.1-8.1a4.5523,4.5523,0,0,0,.9-1.2c-3.4-.5-6.5-1-9.5-1.4s-3.1-.5-3.4-3.7c-.4-3.9-.7-7.8-1.2-11.7a3.489,3.489,0,0,0-1.4-2.3c-7.2-4.1-14.4-8.4-21.8-11.9-13.3-6.3-27.4-10-41.9-12.1a8.1334,8.1334,0,0,0-3.1-.2,8.0007,8.0007,0,0,0-2.3,1.6,7.0014,7.0014,0,0,0,1.6,1.4c1.6.8,3.3,1.4,5.2,2.3-2.4,3.1-4.6,5.8-6.8,8.6a6.782,6.782,0,0,0-1.2,2.2,122.4222,122.4222,0,0,0-2.7,12c-.6,4.2-2,7.9-5.2,10.7a5.7932,5.7932,0,0,0-1.4,1.7,2.51,2.51,0,0,0-.1,1.9c2.4,3.9,2.3,5.1-.8,8.4-2.6,2.8-5.3,5.4-9.2,6.3a37.3455,37.3455,0,0,0-5.6,2,63.0406,63.0406,0,0,0-7.3,3.8,13.2913,13.2913,0,0,0-4.1,3.7c-2.3,3.3-4.3,6.8-6.3,10.3-1,1.7-1.8,2-3.3.7a8.6911,8.6911,0,0,1-2.5-3.5c-2.1-4.7-1.7-9.7-1.1-14.6.4-3.2,1.5-6.1,4.2-8.2a3.916,3.916,0,0,0,1.2-1.4c.2-.5.3-1.4,0-1.7a4.4955,4.4955,0,0,1-.8-4.8,47.2848,47.2848,0,0,1,2-4.7c2.5-5.8,2.1-8-2.6-12.3-.6-.5-1.2-1.1-1.8-1.6a5.87,5.87,0,0,1-1.5-6.6c.8-1.8,1.8-3.5,2.6-5.3a4.0063,4.0063,0,0,1,3.5-2.6c3.5-.4,6.6-1.3,7.4-5.4a9.2919,9.2919,0,0,0,.5-1,8.3841,8.3841,0,0,0,0-1.6c-.7.3-1.2.5-1.6.7-2.1,1-4.3,2.1-6.4,3.1a37.2825,37.2825,0,0,0-4,2c-3.9,2.8-6.4,6.7-8.9,10.6a4.2478,4.2478,0,0,1-3.7,2.2,4.6593,4.6593,0,0,1-4.4-2.1,3.6025,3.6025,0,0,1-.1-4.3c.4-.6,1.2-1,1.4-1.6a6.0011,6.0011,0,0,0,.7-3.2c-.2-1.4-1.5-.9-2.4-.8-2.4.3-4.7.6-7.1,1a37.3579,37.3579,0,0,0-4.6,1.1,10.5345,10.5345,0,0,0,2,1.6c1.3.8,1.7,1.8.9,3.2a19.4522,19.4522,0,0,0-.8,2.2c-.5,1.2-1.2,2.3-2,3.9-1.2-2.5-2-4.5-3-6.3a2.3865,2.3865,0,0,0-1.8-1c-3,.9-6.1,1.9-9,3.1-1.4.5-2.2,1.8-1.1,3.3a2.404,2.404,0,0,1-.1,3c-2.3,3.5-4.7,7-6.8,10.7a14.4932,14.4932,0,0,1-7.6,6.2c-.9.4-2.2,1.8-2.1,2.5.3,1.7,1.8,2.6,3.5,3.2a3.3333,3.3333,0,0,0,3.4-1c2.2-2.2,4.7-4.1,6.8-6.3a12.2939,12.2939,0,0,0,2.3-3.6c.5-1.1.6-2.5,1.2-3.4,2-2.8,4.2-5.4,6.4-8.1.3-.3,1-.7,1.3-.6,2.3.5,4.6,1.2,7.5,1.9-1.9,1.2-3.3,2-4.7,2.9a6.8446,6.8446,0,0,0-2.1,1.7c-2.9,4.8-6.2,9.4-5.8,15.5,0,.4-.2.8-.2,1.3v1.5c.5-.2,1.3-.2,1.6-.5,1.4-1.4,2.7-3,4.1-4.4a3.71,3.71,0,0,0,1.2-3.6,33.8172,33.8172,0,0,1-.3-5.5,2.0919,2.0919,0,0,1,.3-1.4,65.3065,65.3065,0,0,1,7.3-5.7c2.4-1.5,4.5.6,6.8,1.1,1.9.4,2.5,1.8,2.4,3.6a8.3292,8.3292,0,0,1-.3,2.2,4.483,4.483,0,0,0,1.4,5.4,15.9335,15.9335,0,0,1,1.3,1.3c1.5,1.4,1.8,5.9.2,7.2a2.4517,2.4517,0,0,0-.8,3.3c.4,1.1.7,2.2,1.1,3.3.6,1.4.9,2.6-.4,3.8-1.4,1.4-2.6,2.8-4.8,1.5-.3-.2-.9-.1-1.6-.2.3,1.3.6,2.4.9,3.4a5.5951,5.5951,0,0,1-3.2,6.7c-1.2.5-2.2.6-3-.7-.9-1.3-2-2.5-3-3.7a4.9723,4.9723,0,0,1-.8-5.2,33.0239,33.0239,0,0,1,2.3-4.1c1-1.7,2.1-3.3,3.1-4.9,1.7-2.7-.8-5-.9-7.5,0-.1-.5-.3-.8-.4a20.1555,20.1555,0,0,1-2.3-.7,1.4983,1.4983,0,0,0-2.2.9c-1.3,3-2.8,5.9-4,9-1.5,4.1-1.4,4.2-5.7,4.4-1.3.1-1.5.6-1.2,1.6a21.8971,21.8971,0,0,0,1.2,3.3c.5,1.3.7,2.2-1.1,2.5-1.2.2-2.3.7-3.5.9a7.8445,7.8445,0,0,1-2.1-.2c1.1-3.1,2-5.9,3-8.7a2.1727,2.1727,0,0,0-1.6.5c-3.3,2.3-6.3,5.1-10.4,5.9a3.674,3.674,0,0,0-1.6.9A15.1844,15.1844,0,0,0,441,323c.2,4.3,2.5,7.9,5.1,11.4a26.83,26.83,0,0,1,2.6,4.7c.5,1,1,2,1.7,3.5a12.6719,12.6719,0,0,0,1-2.5,6.1167,6.1167,0,0,1,2.6-4.2,53.2,53.2,0,0,0,4.6-3.7c1.5-1.3,1.7-2.7.4-4.1-.8-.8-.8-1.4-.1-2.1a14.3655,14.3655,0,0,0,4.1-8,16.5528,16.5528,0,0,1,.6-2.1c.5-1.5,1.6-1.9,2.8-1.1,2.3,1.6,4.6,3.2,6.8,5,.3.2.3,1.2.1,1.7-.6,1.4-1.4,2.7-2,4.1a1.6084,1.6084,0,0,0,.4,1.6,1.7361,1.7361,0,0,0,1.7-.1,8.4668,8.4668,0,0,0,1.9-1.4C475.7,324.4,477,323.2,478.6,321.7Zm-98.3,87c-.2.1-.3.2-.5.3,2.6,41.1,18.3,76.2,47.9,104.9a147.3737,147.3737,0,0,0,58.1,35,8.3436,8.3436,0,0,0-1.4-3,7.784,7.784,0,0,1-2.1-4.7,5.5312,5.5312,0,0,0-2-3.9,9.5413,9.5413,0,0,1-2.9-5.4c-.4-1.8-1.5-3.4-2.2-5.1a35.6964,35.6964,0,0,1-1.6-4.6c-.4-1.7.1-3.8-.6-5.2-3.4-6.3-5.4-13.1-7.2-19.9-1.4-5.3-4-9.5-9-12a19.0194,19.0194,0,0,1-4.4-3q-3.75-3.3-7.2-6.9c-1.5-1.6-2.7-3.5-4.2-5s-2.8-3-2.7-5.3a14.7316,14.7316,0,0,0-.4-4.7c-.8-3.1.3-5.4,2.1-7.7,3-3.9,1.3-8.1-1.3-10.7-1.8-1.8-2.3-1.7-3.1.7h-.5a6.1171,6.1171,0,0,1-1.2-.5,30.9674,30.9674,0,0,1-11.7-8.9,8.0536,8.0536,0,0,0-3-2.2c-3.5-1.3-7.1-2.2-10.6-3.4-4.9-1.6-10-2.8-14.4-5.8a8.3087,8.3087,0,0,1-2.9-3.5c-3.1-6.3-6.4-12.4-9.7-18.6a13.09,13.09,0,0,0-1.3-1.6c-.8,5.4,3.2,9.2,3.5,13.8-.1.1-.3.2-.4.3A43.6856,43.6856,0,0,1,380.3,408.7Zm179.1-25.9c.1.2.1.5.2.7,1.3-.4,2.6-.6,3.8-1.1,6.4-2.9,13-4.4,20.1-3.1,1.3.2,1.8.6,1.8,1.9a32.5292,32.5292,0,0,0,.3,4.4,2.8859,2.8859,0,0,0,1.3,1.9c3.4,1.6,6.8,3,10.2,4.5.4.1.8.1,1.3.2-.1-.7-.2-1.1-.3-1.6-.4-2.7.5-4.6,3.7-3.6,4.5,1.4,9.1,2.6,14,2.2a7.8507,7.8507,0,0,0,7-4.7,14.7642,14.7642,0,0,0,1-2.7,13.1042,13.1042,0,0,0,0-2.8c-.8.1-1.8-.1-2.4.4-2.2,1.5-3.9.7-5.8-.6-3.6-2.3-7.2-4.6-10.8-6.8-.8-.5-1.9-1.1-2.3.1-.2.6.4,1.7.9,2.4.3.4,1.2.5,1.6.9a3.7344,3.7344,0,0,1,1,2.1c0,.6-.8,1.7-1.1,1.7-1.6-.1-3.4,1-4.7-.8a55.7934,55.7934,0,0,0-3.8-4.7c-.5-.5-2-1.3-2.1.2,0,2.5-1.7,3.8-2.8,5.6a2.6224,2.6224,0,0,1-4.2.2c-1.2-1.3-1-2.4.7-3.1,2.2-1,2.6-3.6.6-5a18.0929,18.0929,0,0,0-15.1-3.2,2.854,2.854,0,0,0-1.5,1,46.2167,46.2167,0,0,0-4.5,6.4c-1.7,3.1-3.8,5.7-7.3,6.6C559.9,382.4,559.7,382.6,559.4,382.8Zm79.1,38c.1,0,.2-.1.3-.1a20.0526,20.0526,0,0,0-1.2-3.7c-2.4-4.4-4.9-8.7-7.4-13-1.1-2-2-4.2-3.3-6.1-.6-.9-2.2-2.3-2.8-2-1.5.6-1.4,2.4-.9,3.7a46.4649,46.4649,0,0,0,3.4,6.2,35.2911,35.2911,0,0,1,2.1,3.2c1.1,2.5,1.6,5.3,2.9,7.7a29.58,29.58,0,0,0,5,6.2c1.1,1.2,1.9.7,1.9-1Z"/><path class="cls-1" d="M478.6,321.7c-1.6,1.5-2.9,2.7-4.2,3.9a8.4668,8.4668,0,0,1-1.9,1.4,2.5239,2.5239,0,0,1-1.7.1,1.6084,1.6084,0,0,1-.4-1.6c.6-1.4,1.4-2.7,2-4.1a1.9783,1.9783,0,0,0-.1-1.7c-2.2-1.7-4.5-3.4-6.8-5-1.3-.9-2.3-.5-2.8,1.1a16.5528,16.5528,0,0,0-.6,2.1,14.3655,14.3655,0,0,1-4.1,8c-.7.7-.7,1.3.1,2.1,1.3,1.4,1.1,2.8-.4,4.1a53.2,53.2,0,0,1-4.6,3.7,5.7941,5.7941,0,0,0-2.6,4.2,12.6719,12.6719,0,0,1-1,2.5c-.7-1.5-1.2-2.5-1.7-3.5a35.4257,35.4257,0,0,0-2.6-4.7c-2.6-3.4-4.9-7-5.1-11.4a15.1844,15.1844,0,0,1,5.2-12.6,3.674,3.674,0,0,1,1.6-.9c4.1-.8,7.1-3.7,10.4-5.9a2.3482,2.3482,0,0,1,1.6-.5c-1,2.8-1.9,5.6-3,8.7a8.2191,8.2191,0,0,0,2.1.2c1.2-.2,2.3-.7,3.5-.9,1.8-.3,1.7-1.2,1.1-2.5-.5-1.1-.8-2.2-1.2-3.3-.3-1-.1-1.6,1.2-1.6,4.3-.2,4.2-.3,5.7-4.4,1.1-3.1,2.6-6,4-9a1.5221,1.5221,0,0,1,2.2-.9c.7.3,1.5.4,2.3.7.3.1.8.2.8.4.1,2.5,2.5,4.8.9,7.5-1,1.7-2.1,3.3-3.1,4.9a33.0239,33.0239,0,0,0-2.3,4.1,4.9723,4.9723,0,0,0,.8,5.2c1,1.2,2,2.4,3,3.7a2.1758,2.1758,0,0,0,3,.7,5.5951,5.5951,0,0,0,3.2-6.7c-.3-1-.5-2.1-.9-3.4.8.1,1.3,0,1.6.2,2.2,1.4,3.4-.1,4.8-1.5,1.3-1.3,1-2.4.4-3.8-.4-1.1-.7-2.2-1.1-3.3a2.4517,2.4517,0,0,1,.8-3.3c1.6-1.2,1.4-5.8-.2-7.2a15.9335,15.9335,0,0,1-1.3-1.3,4.483,4.483,0,0,1-1.4-5.4,5.3443,5.3443,0,0,0,.3-2.2c.1-1.8-.5-3.2-2.4-3.6-2.2-.5-4.4-2.6-6.8-1.1-2.6,1.7-4.9,3.8-7.3,5.7-.3.2-.4.9-.3,1.4a33.8172,33.8172,0,0,0,.3,5.5,3.71,3.71,0,0,1-1.2,3.6c-1.4,1.4-2.7,3-4.1,4.4a3.0218,3.0218,0,0,1-1.6.5,7.5188,7.5188,0,0,1,0-1.5c0-.4.2-.8.2-1.3-.4-6,2.9-10.7,5.8-15.5a6.0378,6.0378,0,0,1,2.1-1.7c1.4-.9,2.8-1.7,4.7-2.9-2.9-.8-5.2-1.4-7.5-1.9a1.3712,1.3712,0,0,0-1.3.6c-2.2,2.6-4.4,5.3-6.4,8.1-.7.9-.7,2.3-1.2,3.4a12.2939,12.2939,0,0,1-2.3,3.6c-2.2,2.2-4.6,4.2-6.8,6.3a2.9886,2.9886,0,0,1-3.4,1c-1.7-.5-3.2-1.5-3.5-3.2-.1-.7,1.1-2.1,2.1-2.5a14.1257,14.1257,0,0,0,7.6-6.2c2.1-3.6,4.5-7.1,6.8-10.7a2.404,2.404,0,0,0,.1-3c-1.1-1.5-.3-2.7,1.1-3.3,2.9-1.2,6-2.2,9-3.1a2.3865,2.3865,0,0,1,1.8,1c1,1.8,1.8,3.8,3,6.3.8-1.6,1.5-2.7,2-3.9.3-.7.5-1.5.8-2.2.8-1.4.4-2.4-.9-3.2-.6-.4-1.1-.9-2-1.6,1.8-.4,3.2-.8,4.6-1.1,2.3-.4,4.7-.8,7.1-1,.9-.1,2.3-.5,2.4.8a7.4112,7.4112,0,0,1-.7,3.2c-.3.6-1.1,1-1.4,1.6a3.7641,3.7641,0,0,0,.1,4.3,4.66,4.66,0,0,0,4.4,2.1,4.248,4.248,0,0,0,3.7-2.2c2.5-3.9,5-7.8,8.9-10.6a21.3473,21.3473,0,0,1,4-2c2.1-1,4.3-2.1,6.4-3.1a14.35,14.35,0,0,1,1.6-.7,8.3841,8.3841,0,0,1,0,1.6,9.2919,9.2919,0,0,0-.5,1c-.7,4.1-3.9,5-7.4,5.4a4.0062,4.0062,0,0,0-3.5,2.6c-.7,1.8-1.7,3.5-2.6,5.3a6.04,6.04,0,0,0,1.5,6.6c.6.5,1.2,1,1.8,1.6,4.6,4.3,5.1,6.5,2.6,12.3a47.3049,47.3049,0,0,0-2,4.7,4.4955,4.4955,0,0,0,.8,4.8c.3.3.2,1.2,0,1.7a3.916,3.916,0,0,1-1.2,1.4c-2.7,2.1-3.8,5-4.2,8.2-.6,4.9-1,9.9,1.1,14.6a11.1534,11.1534,0,0,0,2.5,3.5c1.5,1.3,2.3.9,3.3-.7,2.1-3.5,4-7,6.3-10.3a13.1733,13.1733,0,0,1,4.1-3.7,50.5735,50.5735,0,0,1,7.3-3.8,37.34,37.34,0,0,1,5.6-2c3.9-.9,6.6-3.5,9.2-6.3,3.1-3.3,3.1-4.5.8-8.4a2.5292,2.5292,0,0,1,.1-1.9,5.5236,5.5236,0,0,1,1.4-1.7c3.2-2.9,4.6-6.5,5.2-10.7.6-4,1.7-8,2.7-12a6.782,6.782,0,0,1,1.2-2.2c2.2-2.8,4.4-5.6,6.8-8.6-1.9-.8-3.6-1.5-5.2-2.3a7.0014,7.0014,0,0,1-1.6-1.4,5.9937,5.9937,0,0,1,2.3-1.6,8.1329,8.1329,0,0,1,3.1.2c14.5,2.2,28.6,5.9,41.9,12.1,7.5,3.5,14.6,7.8,21.8,11.9a3.489,3.489,0,0,1,1.4,2.3c.5,3.9.8,7.8,1.2,11.7.3,3.1.4,3.3,3.4,3.7,3.1.4,6.1.9,9.5,1.4-.5.6-.6,1.1-.9,1.2-4.3,2.7-8.7,5.4-13.1,8.1a22.8766,22.8766,0,0,1-2.3,1c-1.8.8-3,.3-4.7-.9-2.7-1.9-6-2.8-9-4.3a10.58,10.58,0,0,1-3.5-2.7,2.4952,2.4952,0,0,0-2.5-1.3c-5.1-.2-9,1.9-12.7,5.5-2.9,2.9-3.4,6.5-4.5,10-.7,2.3-1.4,4.5-2.2,6.8-1,2.8-3.3,4.2-5.9,5.1a3.0179,3.0179,0,0,0-2,2.1c-1,3.4.2,6.4,1.9,9.2a1.5959,1.5959,0,0,0,2.7.3c1.4-1.2,2.4-.6,3.2.6.9,1.3,1.5,2.6,2.4,3.9.4.6,1.1,1.6,1.4,1.5,1.2-.2,2.9-.5,3.5-1.4a36.4674,36.4674,0,0,0,3.5-6.8,3.2413,3.2413,0,0,0-.3-2.7c-2-2.7-1.7-5.5-.5-8.3.9-2.4,1.9-4.7,3-7a3.1594,3.1594,0,0,1,1.4-1.4c.4-.3,1-.3,1.4-.5a4.0126,4.0126,0,0,1,.3,1.5c-.5,2.1-1.1,4.3-1.7,6.4-1.1,3.9.4,6,4.4,6.6a6.1984,6.1984,0,0,1,2.9,1.2c1.1.9.8,1.9-.6,2.4-2.3.9-5.1,4.8-5.3,7.4a28.8534,28.8534,0,0,1-.4,2.9,3.3209,3.3209,0,0,1-3.1,2.6c-4.4.5-8.8,1.1-13.2,1.9a8.4967,8.4967,0,0,0-3.2,1.5c-2.3,1.6-4.5,3.4-6.9,5.1-1.1.8-1.6.3-1.6-1.1a4.2818,4.2818,0,0,0-.6-2.2c-1.1-1.8-2.5-3.4-3.4-5.2a9.5362,9.5362,0,0,1-1-4.1c0-1.8-1.4-2.4-2.2-3.6-.2-.3-.7-.5-1-.8-3.3,2.8-3.4,7,.3,8.9,1.6.8.9,2.1.3,2.9-2.1,3-2,6.5-2.4,9.8,0,.2.1.5.1,1,.7-.4,1.2-.7,1.8-1.1,2.3-1.6,4.7-3.2,7.6-3.3a4.9007,4.9007,0,0,1,1.9.7c-.3.7-.3,1.8-.8,2.1-2.6,1.5-5.3,2.8-7.9,4.2-.5.2-1,.5-1.4.7,1.2,2.6,2.3,5,3.5,7.4.8,1.5.3,2.4-1.3,2.6a27.1046,27.1046,0,0,1-4,.4,3.2931,3.2931,0,0,0-3.4,2c-1,2-1.9,3.9-2.8,5.9-1.1,2.4-.4,4.4,1.5,6.1a11.5111,11.5111,0,0,0,1.7,1.4c2.2,1.6,2.4,2.3,1,4.7-.8,1.2-1.7,2.4-2.6,3.5-1.6,1.9-3,3.9-3,6.5a1.7846,1.7846,0,0,1-.9,1.2c-3.7,2-6,5.2-7.9,8.9-1.5,3-2.5,5.9-2,9.4a81.4067,81.4067,0,0,1,.3,8.6,10.8232,10.8232,0,0,0,3.5,7.5c3.3,3.3,6.7,6.6,10.2,9.8a3.9135,3.9135,0,0,0,2.9,1.1c4.2-.3,8.5-.4,12.5-1.4a14.4156,14.4156,0,0,1,8.5.6,27.1331,27.1331,0,0,0,4.1.9c2.4.4,3.3,1.5,3,3.9a1.7018,1.7018,0,0,1-.1.7c-1.6,3.6-.3,6.8,1.3,9.9,1.2,2.3,2.1,4.7,3.2,7a13.32,13.32,0,0,1,.9,9.6c-1.8,5.9-1,11.5,1.3,17.2,2.6,6.4,4.3,13.2,6.4,19.8.4,1.2,1,2,2.3,1.9a13.568,13.568,0,0,0,4.1-.5,59.11,59.11,0,0,0,7.6-3.7,7.2108,7.2108,0,0,0,2.5-2.1c3.1-4.6,6.2-9.2,9.2-13.9.8-1.2.9-2.8,1.4-4.3a9.733,9.733,0,0,1,1.1-2.3c2-3,3.8-6.1,6-9a9.8,9.8,0,0,0,1.9-8.8c-1.2-3.9,0-7.2,1.8-10.3,2.8-4.6,5.8-9,8.8-13.5,2.9-4.3,5.9-8.5,8.6-13,.6-1,.3-2.7.2-4.1,0-.2-1.3-.6-1.8-.4q-4.05,1.05-8.1,2.4a2.288,2.288,0,0,1-2.9-1.1c-1.1-1.7-.7-2.7,1.2-3.3a71.9066,71.9066,0,0,0,18.1-8.7,18.2676,18.2676,0,0,0,6.9-7.9c1.1-2.5.7-3.2-1.7-4.3q-6.9-3-13.8-6.3a7.648,7.648,0,0,1-4.1-5.6,11.277,11.277,0,0,1,1.4.2c5,3.1,10.5,3.9,16.2,4.5,3.8.4,7.5,1.3,11.2,2a7.918,7.918,0,0,1,2.8,1.3,37.4074,37.4074,0,0,1,10.5,9.3,9.2478,9.2478,0,0,1,1.9,7.2,162.1578,162.1578,0,0,1-6.9,32.2,156.2683,156.2683,0,0,1-174.3,106c-4.2-.7-8.3-1.6-12.4-2.6a3.1231,3.1231,0,0,1-1.6-1.6,25.6079,25.6079,0,0,1-1.1-4.6,3.2035,3.2035,0,0,0-1.9-2.9,2.7686,2.7686,0,0,1-1.5-3.5,18.0306,18.0306,0,0,0,.5-1.9c1.1-4.5,2.2-9,3.1-13.5a9.079,9.079,0,0,0-.6-3.9c-.4-1-.3-1.6.7-2a4.6966,4.6966,0,0,0,3.2-4.7,44.149,44.149,0,0,1,1.7-8.8,9.7307,9.7307,0,0,1,1.8-3.5c2-2.2,4.3-4.2,6.4-6.3a2.8416,2.8416,0,0,0,.9-1.9c.6-4.5,1-9,1.7-13.4.6-3.9,1.5-7.8,2.3-11.6a3.9951,3.9951,0,0,0-1.5-4.2,43.3834,43.3834,0,0,0-6.8-4.3c-5-2.6-10.1-4.9-15.1-7.5a24.8759,24.8759,0,0,1-5.2-4c-2.3-2.1-4.3-4.4-7.8-4.5-1.5,0-3.1-1.2-4.5-2.2a20.0965,20.0965,0,0,1-3.9-3.8,6.8209,6.8209,0,0,0-5.6-2.6,46.6869,46.6869,0,0,1-14.7-2.8,2.1462,2.1462,0,0,0-1.5.4c-1.6,1.1-3.1,2.4-4.7,3.4a7.9049,7.9049,0,0,1-5.6,1.4,4.5667,4.5667,0,0,0-2,.2q-5.25,1.2-6-4.2c-.2-1.9-.6-3.8-.7-5.6,0-1.8-.8-2.2-2.4-2.1-1.1.1-2.2,0-3.3,0-2.7,0-3.5-1.7-2.3-4.2a72.4439,72.4439,0,0,0,2.5-7.1c-2.9.3-5,.6-6.1,3.1-.6,1.4-1.1,3.2-3.2,3.4a8.552,8.552,0,0,1-6.9-1.7,4.7387,4.7387,0,0,1-1.2-1.8c-2-4.5-1.7-9-.3-13.6a5.64,5.64,0,0,1,.4-1.2,6.6755,6.6755,0,0,1,7.2-5.3,44.2677,44.2677,0,0,1,5.1.6,1.5716,1.5716,0,0,0,1.9-.9c1.2-2.6,4.1-3,6.6-1.7,2.7,1.4,3.6,3.7,4.6,6.2a49.0505,49.0505,0,0,0,2.8,5c.3,0,.6-.1.9-.1.2-.9.9-1.9.7-2.6a25.1348,25.1348,0,0,0-2.1-6c-.7-1.6-.8-2.9.2-4.3a15.426,15.426,0,0,1,2.5-3.1,29.8834,29.8834,0,0,0,10-12.8,8.6035,8.6035,0,0,1,5.7-5.3,5.1115,5.1115,0,0,0,3.8-4.4,2.6548,2.6548,0,0,1,2.4-2.3c.8-.1,1.6-.5,2.3-.5,4.5.5,8.1-2,12-3.4,1.4-.5,1.4-2.6.2-3.8-2-2-4-3.9-6-5.9a6.3758,6.3758,0,0,1-.8-1.4,10.41,10.41,0,0,1,1.6-.6,5.7207,5.7207,0,0,1,2.6.1c2.6.9,4.8-.1,6.9-1.4a16.3158,16.3158,0,0,1,1.9-.9.9984.9984,0,0,1,.5.4c-1,2.5-2.1,4.9-3.1,7.4,2.9,3,5.4,3.6,9.2,1.9,1.4-.6,1.5-2,1.4-3.3-.1-1.1-.3-2.2-1.9-2.2-1.4,0-2-.8-2-2.3,0-4-.1-7.9-.1-11.9a3.75,3.75,0,0,0-.1-1.1c-2.4-3.3-2.3-7.3-2.8-11C479,325,478.9,323.6,478.6,321.7ZM649.1,472.2a6.3729,6.3729,0,0,0-.7-.2c-1.9,2.6-3.8,5.2-5.8,7.7a8.2768,8.2768,0,0,1-1.5,1.1c-.5.4-1.2.7-1.5,1.3-1.1,2.3-1.9,4.7-3.1,7-.7,1.2-1.3,2.4-.5,3.5a6.5641,6.5641,0,0,0,3.1,2.4c1.6.4,2.6-1,3.2-2.5,1.5-3.9,3.3-7.6,4.6-11.5C648,478.2,648.4,475.1,649.1,472.2ZM426.4,413.5c.1,0,.2.1.3.1a1.7018,1.7018,0,0,0,.7-.1c3.2-.6,6.2,0,8.3,2.6,2.2,2.7,5,2.1,8,1.7-.3-.7-.6-1.4-1.2-1.6-2.9-1.5-5.9-2.8-8.9-4.2C431.6,411,427.6,411.8,426.4,413.5Zm16.7,7.8c3.4,2.2,6.8-.4,10.2.1-.3-2-1.3-2.7-3.6-2.9C446,418.1,443.9,419,443.1,421.3Zm17.6.9c-.6-2.3-2.3-3.1-3.8-2.2a1.1932,1.1932,0,0,0-.5.9c0,.3.3.8.6.8C458.1,421.9,459.3,422,460.7,422.2Z"/><path class="cls-1" d="M380.3,408.7c.9,1.1,1.8,2.1,2.8,3.2.1-.1.3-.2.4-.3-.3-4.7-4.3-8.5-3.5-13.8a7.5554,7.5554,0,0,1,1.3,1.6c3.3,6.2,6.6,12.4,9.7,18.6a7.6435,7.6435,0,0,0,2.9,3.5c4.4,3,9.5,4.2,14.4,5.8,3.5,1.2,7.1,2.1,10.6,3.4a8.0528,8.0528,0,0,1,3,2.2,30.9672,30.9672,0,0,0,11.7,8.9c.4.2.8.3,1.2.5.2.1.4,0,.5,0,.8-2.3,1.3-2.5,3.1-.7,2.6,2.7,4.3,6.8,1.3,10.7-1.8,2.3-2.9,4.7-2.1,7.7a18.6829,18.6829,0,0,1,.4,4.7c-.1,2.3,1.2,3.8,2.7,5.3s2.7,3.4,4.2,5q3.45,3.6,7.2,6.9a19.0194,19.0194,0,0,0,4.4,3c5,2.6,7.6,6.8,9,12a94.7409,94.7409,0,0,0,7.2,19.9c.8,1.4.3,3.5.6,5.2a19.33,19.33,0,0,0,1.6,4.6c.7,1.7,1.9,3.3,2.2,5.1a10.9688,10.9688,0,0,0,2.9,5.4,5.5312,5.5312,0,0,1,2,3.9,8.1176,8.1176,0,0,0,2.1,4.7,6.9589,6.9589,0,0,1,1.4,3,148.548,148.548,0,0,1-58.1-35c-29.6-28.8-45.3-63.9-47.9-104.9A.91.91,0,0,0,380.3,408.7Z"/><path class="cls-1" d="M559.4,382.8a3.0388,3.0388,0,0,1,.7-.5c3.6-1,5.6-3.5,7.3-6.6a56.6736,56.6736,0,0,1,4.5-6.4,3.307,3.307,0,0,1,1.5-1,18.5256,18.5256,0,0,1,15.1,3.2,2.8211,2.8211,0,0,1-.6,5c-1.7.7-1.9,1.8-.7,3.1a2.6224,2.6224,0,0,0,4.2-.2c1.1-1.7,2.8-3.1,2.8-5.6,0-1.5,1.6-.7,2.1-.2a35.4409,35.4409,0,0,1,3.8,4.7c1.3,1.8,3.1.7,4.7.8.4,0,1.1-1.1,1.1-1.7a3.7344,3.7344,0,0,0-1-2.1c-.4-.4-1.3-.4-1.6-.9-.5-.7-1.1-1.8-.9-2.4.4-1.1,1.5-.6,2.3-.1,3.6,2.3,7.3,4.5,10.8,6.8,1.9,1.2,3.6,2.1,5.8.6a6.0511,6.0511,0,0,1,2.4-.4,26.1521,26.1521,0,0,1,0,2.8,12.4833,12.4833,0,0,1-1,2.7,7.6883,7.6883,0,0,1-7,4.7c-4.9.4-9.5-.8-14-2.2-3.2-1-4,.9-3.7,3.6.1.5.2.9.3,1.6-.5-.1-.9-.1-1.3-.2-3.4-1.5-6.9-2.9-10.2-4.5a2.8859,2.8859,0,0,1-1.3-1.9,21.24,21.24,0,0,1-.3-4.4c0-1.3-.5-1.7-1.8-1.9-7.1-1.3-13.7.2-20.1,3.1-1.2.5-2.5.7-3.8,1.1A.6614.6614,0,0,0,559.4,382.8Z"/><path class="cls-1" d="M638.5,420.8v.9c-.1,1.7-.8,2.2-1.9,1a33.1459,33.1459,0,0,1-5-6.2c-1.3-2.4-1.9-5.1-2.9-7.7-.5-1.1-1.5-2.1-2.1-3.2a46.4649,46.4649,0,0,1-3.4-6.2c-.5-1.2-.7-3.1.9-3.7.6-.2,2.2,1.1,2.8,2,1.3,1.9,2.2,4.1,3.3,6.1,2.5,4.3,5,8.6,7.4,13a22.8512,22.8512,0,0,1,1.2,3.7C638.7,420.7,638.6,420.7,638.5,420.8Z"/><path class="cls-2" d="M649.1,472.2A86.6674,86.6674,0,0,1,647,481c-1.3,3.9-3.1,7.7-4.6,11.5-.6,1.5-1.6,2.8-3.2,2.5a6.5641,6.5641,0,0,1-3.1-2.4c-.9-1.1-.2-2.3.5-3.5,1.2-2.2,2-4.7,3.1-7a4.8611,4.8611,0,0,1,1.5-1.3c.5-.4,1.1-.7,1.5-1.1,2-2.5,3.9-5.1,5.8-7.7C648.7,472.1,648.9,472.1,649.1,472.2Z"/><path class="cls-2" d="M426.4,413.5c1.3-1.7,5.2-2.5,7.3-1.5,3,1.4,6,2.7,8.9,4.2a3.9776,3.9776,0,0,1,1.2,1.6c-3,.4-5.8,1-8-1.7-2.1-2.6-5.1-3.2-8.3-2.6-.2,0-.5.1-.7.1S426.5,413.6,426.4,413.5Z"/><path class="cls-2" d="M443.1,421.3c.8-2.3,2.9-3.2,6.6-2.8,2.2.2,3.2.9,3.6,2.9C449.8,420.9,446.5,423.5,443.1,421.3Z"/><path class="cls-2" d="M460.7,422.2c-1.4-.2-2.6-.3-3.8-.5-.2,0-.6-.5-.6-.8a1.1932,1.1932,0,0,1,.5-.9C458.4,419.1,460.1,419.8,460.7,422.2Z"/><path class="cls-2" d="M341.6,465l-71.5,14.3-10-50.2,15.6-3.2,6.2,30.8,12.3-2.4-5.5-27.8,15.6-3.2,5.5,27.8,27.9-5.6ZM300.3,345.7c8,.7,14.7,2.9,20.1,6.4a33.1721,33.1721,0,0,1,11.5,13.8,38.21,38.21,0,0,1,2.8,18.3,36.19,36.19,0,0,1-5.9,17.6,32.6061,32.6061,0,0,1-13.7,11.7c-5.9,2.7-12.7,3.7-20.8,3-8-.7-14.7-2.9-20.1-6.4a32.5683,32.5683,0,0,1-11.5-13.8,38.4313,38.4313,0,0,1-2.9-18.3,36.4093,36.4093,0,0,1,5.8-17.5,32.6061,32.6061,0,0,1,13.7-11.7C285.2,346.1,292.1,345.1,300.3,345.7Zm-1.8,20.4a34.4226,34.4226,0,0,0-11.1.8,15.1386,15.1386,0,0,0-7.3,4.5,15.5536,15.5536,0,0,0-1.5,16.4,13.1439,13.1439,0,0,0,6.4,5.6,37.7428,37.7428,0,0,0,10.9,2.7,34.4226,34.4226,0,0,0,11.1-.8,15.1371,15.1371,0,0,0,7.3-4.5,15.5534,15.5534,0,0,0,1.5-16.4,13.1446,13.1446,0,0,0-6.4-5.6A27.6766,27.6766,0,0,0,298.5,366.1ZM286,283.9l7.7-18.2,43.1,18.1c5.1,2.2,9.1,5.2,11.8,9.2a27.1213,27.1213,0,0,1,4.4,13.7,41.053,41.053,0,0,1-3.3,16.4c-2.5,5.8-5.5,10.5-9.5,14a26.9818,26.9818,0,0,1-12.8,6.5,26.3117,26.3117,0,0,1-14.7-1.9l-43.3-18,7.7-18.2L318.5,323a11.2145,11.2145,0,0,0,11.6-1.2,13.4575,13.4575,0,0,0,3.8-4.9,12.474,12.474,0,0,0,1-6.2,10.3746,10.3746,0,0,0-2.2-5.4,13.4575,13.4575,0,0,0-4.9-3.8ZM343.9,201l56,46.6-10.6,12.7L343,256.1l-.2.2,29.4,24.6-12.7,15.3-56.1-46.8,10.8-13,45.9,4.5.3-.4-29.2-24.3Zm77.7,33L398,249.3l-39.8-61.1,23.3-15.1a39.7612,39.7612,0,0,1,18.7-6.9,32.36,32.36,0,0,1,17.5,3.6c5.5,2.9,10.2,7.6,14.4,14s6.5,12.7,6.9,18.8a30.5294,30.5294,0,0,1-3.7,17.3C432.4,225.2,427.7,230,421.6,234Zm-16.2-9.7,6.4-4.2a22.96,22.96,0,0,0,6.7-6.4,12.6213,12.6213,0,0,0,1.7-8.2c-.4-3.2-2-6.8-4.8-11.1-2.8-4.2-5.5-7.2-8.1-8.8a11.2208,11.2208,0,0,0-8.2-1.8,24.9242,24.9242,0,0,0-9,3.7l-5.8,3.8Zm58-12.7-20.5,6,2.7-76.8,26.1-7.6,43.5,63.3-20.5,6-30.1-46.4-.6.2ZM451.6,185l38.6-11.2,4.2,14.1-38.6,11.2Zm47-42.2-.3-16,63.4-1.1.3,16-22,.2,1.1,57.1-19.6.4-1.1-56.9Zm93.3-11.1-12.5,71.9-19.5-3.3,12.5-71.9Zm66,61.8c-3.1,7.5-7.1,13.2-12.2,17.2a31.5353,31.5353,0,0,1-16.7,6.9,39.6914,39.6914,0,0,1-33.3-13.4,31.8924,31.8924,0,0,1-7-16.5c-.8-6.3.3-13.2,3.4-20.7s7.1-13.2,12.2-17.2a31.8693,31.8693,0,0,1,16.5-7,38.4147,38.4147,0,0,1,18.4,2.8,36.2975,36.2975,0,0,1,15,10.8,30.8794,30.8794,0,0,1,7.1,16.5C662.1,179.1,661,186,657.9,193.5Zm-18.8-7.7a32.9789,32.9789,0,0,0,2.6-10.8,14.5345,14.5345,0,0,0-2.1-8.2,14.27,14.27,0,0,0-6.8-5.3,13.1293,13.1293,0,0,0-8.6-.9,14.36,14.36,0,0,0-7.3,4.5,32.1252,32.1252,0,0,0-5.8,9.6,32.9789,32.9789,0,0,0-2.6,10.8,14.5345,14.5345,0,0,0,2.1,8.2,14.27,14.27,0,0,0,6.8,5.3,13.1293,13.1293,0,0,0,8.6.9,14.36,14.36,0,0,0,7.3-4.5C635.6,193.2,637.5,189.9,639.1,185.8ZM736.6,211l-47,55.8L677,256.2l4.4-46.2-.2-.2L656.6,239l-15.1-12.7,47-55.8,12.8,10.9-4.7,46,.4.3,24.4-29.4Zm-5.8,129.1,71.7-13.7,9.5,50.3-15.7,2.9-5.9-31L778,351l5.3,27.9-15.7,2.9-5.3-27.9-28,5.4Zm40.1,119.6c-8.1-.8-14.8-3-20-6.7a32.459,32.459,0,0,1-11.4-13.9,39.422,39.422,0,0,1,3.4-35.7,33.0635,33.0635,0,0,1,13.9-11.6c5.8-2.6,12.8-3.6,20.8-2.7,8.1.8,14.8,3,20,6.7A32.018,32.018,0,0,1,809,409.7a37.4,37.4,0,0,1,2.6,18.4,36.9592,36.9592,0,0,1-6,17.5,31.7873,31.7873,0,0,1-13.9,11.6A41.9929,41.9929,0,0,1,770.9,459.7Zm1.9-20.2a30.0064,30.0064,0,0,0,11.1-.6,15.6142,15.6142,0,0,0,7.4-4.4,14.4682,14.4682,0,0,0,3.2-8,13.8865,13.8865,0,0,0-1.6-8.5,14.2642,14.2642,0,0,0-6.3-5.8,33.2686,33.2686,0,0,0-10.8-2.8,30.0066,30.0066,0,0,0-11.1.6,14.2549,14.2549,0,0,0-7.3,4.5,14.469,14.469,0,0,0-3.2,8,13.8879,13.8879,0,0,0,1.6,8.5,14.2642,14.2642,0,0,0,6.3,5.8C764.8,438.2,768.4,439,772.8,439.5Zm11.6,82.3-7.9,18.1-42.8-18.5A25.6908,25.6908,0,0,1,722,512a25.225,25.225,0,0,1-4.2-13.8,39.8794,39.8794,0,0,1,3.5-16.5,39.0549,39.0549,0,0,1,9.6-13.9,24.8454,24.8454,0,0,1,27.7-4.3l43,18.6-7.9,18.1-41.3-18a13.602,13.602,0,0,0-6.2-1.1,12.73,12.73,0,0,0-5.4,2.1,12.4719,12.4719,0,0,0-3.8,4.9,13.602,13.602,0,0,0-1.1,6.2,12.73,12.73,0,0,0,2.1,5.4,12.4719,12.4719,0,0,0,4.9,3.8Zm-58.8,82.3-55.5-47.2,10.8-12.6,46.3,4.7.3-.2L698.1,524l12.8-15.2L766.4,556l-10.9,12.8-45.9-5-.4.4L738.3,589Zm-77.2-33.8,23.6-15,39.1,61.5-23.5,15a42.2517,42.2517,0,0,1-18.7,6.8,28.8883,28.8883,0,0,1-17.3-3.8c-5.5-2.9-10.2-7.7-14.3-14.2s-6.3-12.7-6.7-18.9a31.8551,31.8551,0,0,1,3.9-17.4A40.3252,40.3252,0,0,1,648.4,570.3Zm16,9.7-6.3,4a22.81,22.81,0,0,0-6.9,6.5,11.9563,11.9563,0,0,0-1.8,8.2c.3,3.2,1.9,6.8,4.7,11.2q4.2,6.3,8.1,9a11.4429,11.4429,0,0,0,8.3,1.9,21.8112,21.8112,0,0,0,9-3.7l5.9-3.8Zm-58,12.2,20.5-5.7-3.6,76.8-26.1,7.2-42.9-63.8,20.5-5.7,29.6,46.6.6-.2Zm11.5,26.6-38.7,10.7-4-14.3,38.7-10.7Zm-47.6,41.9.1,16-63.4.5-.1-16,21.9-.2-.5-57,19.6-.2.5,57Zm-93.3,10,13.2-71.8,19.4,3.6-13.2,71.8Zm-65.5-62.4c3.1-7.5,7.3-13.2,12.3-17.2a30.9394,30.9394,0,0,1,16.6-6.7,38.2192,38.2192,0,0,1,18.3,3,37.7628,37.7628,0,0,1,14.9,10.9,30.7312,30.7312,0,0,1,6.8,16.6q1.2,9.45-3.6,20.7c-3.1,7.5-7.3,13.2-12.3,17.2a30.9394,30.9394,0,0,1-16.6,6.7,38.2192,38.2192,0,0,1-18.3-3,39.2478,39.2478,0,0,1-14.9-10.9,31.4141,31.4141,0,0,1-7-16.6C407.2,622.8,408.4,615.8,411.5,608.3Zm18.9,7.9a29.0156,29.0156,0,0,0-2.6,10.8,14.2937,14.2937,0,0,0,2,8.2,13.5241,13.5241,0,0,0,6.7,5.3c3,1.2,5.9,1.7,8.5,1a14.8018,14.8018,0,0,0,7.4-4.4,29.6323,29.6323,0,0,0,5.8-9.5,28.5863,28.5863,0,0,0,2.6-10.8,14.2937,14.2937,0,0,0-2-8.2,13.5241,13.5241,0,0,0-6.7-5.3c-3-1.2-5.9-1.7-8.5-1a15.5637,15.5637,0,0,0-7.4,4.4A27.5635,27.5635,0,0,0,430.4,616.2ZM333.1,590l47.4-55.4,12.6,10.8-5,46.2.2.3,24.9-29.1,15,12.8L380.8,631,368,620l5.1-45.9-.4-.4-24.8,29Z"/><rect class="cls-2" x="731.2415" y="259.5171" width="49.9004" height="34.0003" transform="translate(-38.9031 403.4503) rotate(-29.1564)"/><polygon class="cls-2" points="702.8 306.3 725.5 253.1 760 315 702.8 306.3"/><rect class="cls-2" x="287.6549" y="508.5003" width="49.9007" height="34.0005" transform="translate(-207.3444 203.7472) rotate(-27.5029)"/><polygon class="cls-2" points="366.9 497.2 342.7 549.8 310 486.9 366.9 497.2"/></svg>