<?xml version="1.0" encoding="utf-8"?>
<!-- Generator: Adobe Illustrator 23.0.6, SVG Export Plug-In . SVG Version: 6.00 Build 0)  -->
<svg version="1.1" id="Layer_1" xmlns="http://www.w3.org/2000/svg" xmlns:xlink="http://www.w3.org/1999/xlink" x="0px" y="0px"
	 viewBox="0 0 555.4 554.9" style="enable-background:new 0 0 555.4 554.9;" xml:space="preserve">
<style type="text/css">
	.st0{fill:#FFFFFF;}
</style>
<circle cx="277.8" cy="277.5" r="177.2"/>
<g>
	<path d="M277.8,443.8c-90.9-0.2-166-73.4-166.2-166.1c-0.2-91,73-166.2,165.6-166.6c91.5-0.4,166.7,73.4,166.9,166.1
		C444.2,368.2,370.8,443.4,277.8,443.8z M220.6,197.7c0.2,1.8,0.4,3.3,0.6,4.7c0.6,3.8,0.5,7.7,2.8,11c0.2,0.3,0.1,0.7,0.1,1.1
		c0,4,0.1,7.9,0.1,11.9c0,1.4,0.6,2.3,2,2.3c1.6,0,1.7,1.1,1.9,2.2c0.2,1.3,0.1,2.6-1.4,3.3c-3.8,1.7-6.4,1.2-9.2-1.9
		c1.1-2.5,2.1-5,3.1-7.4c-0.2-0.1-0.4-0.2-0.5-0.4c-0.6,0.3-1.3,0.5-1.9,0.9c-2.1,1.3-4.3,2.3-6.9,1.4c-0.8-0.3-1.7-0.2-2.6-0.1
		c-0.6,0-1.1,0.4-1.6,0.6c0.2,0.5,0.4,1,0.8,1.4c2,2,4,4,6,5.9c1.2,1.2,1.2,3.3-0.2,3.8c-3.9,1.4-7.5,3.9-12,3.4
		c-0.7-0.1-1.5,0.3-2.3,0.5c-1.4,0.2-2.2,0.9-2.4,2.3c-0.4,2.2-1.6,3.7-3.8,4.4c-2.7,0.8-4.6,2.6-5.7,5.3c-2.1,5.2-5.6,9.4-10,12.8
		c-1,0.8-1.8,2-2.5,3.1c-1,1.4-0.9,2.7-0.2,4.3c0.9,1.9,1.6,4,2.1,6c0.2,0.8-0.4,1.8-0.7,2.6c-0.3,0-0.6,0.1-0.9,0.1
		c-1-1.6-2.1-3.2-2.8-5c-1-2.5-1.9-4.8-4.6-6.2c-2.5-1.3-5.4-0.9-6.6,1.7c-0.4,0.9-1,1-1.9,0.9c-1.7-0.3-3.4-0.5-5.1-0.6
		c-3.6-0.2-6.3,1.8-7.2,5.3c-0.1,0.4-0.2,0.8-0.4,1.2c-1.5,4.6-1.7,9.1,0.3,13.6c0.3,0.6,0.7,1.3,1.2,1.8c2,1.6,4.4,1.9,6.9,1.7
		c2.1-0.2,2.5-2,3.2-3.4c1.1-2.5,3.2-2.8,6.1-3.1c-0.9,2.6-1.5,5-2.5,7.1c-1.2,2.5-0.4,4.1,2.3,4.2c1.1,0,2.2,0.1,3.3,0
		c1.6-0.1,2.4,0.3,2.4,2.1c0,1.9,0.4,3.8,0.7,5.6c0.4,3.6,2.5,5,6,4.2c0.6-0.2,1.4-0.3,2-0.2c2.1,0.3,3.9-0.3,5.6-1.4
		c1.6-1.1,3.1-2.3,4.7-3.4c0.4-0.3,1.1-0.6,1.5-0.4c4.8,1.7,9.6,2.7,14.7,2.8c2.3,0.1,4.1,0.8,5.6,2.6c1.2,1.4,2.5,2.8,3.9,3.8
		c1.3,1,2.9,2.2,4.5,2.2c3.6,0.1,5.6,2.3,7.8,4.5c1.6,1.5,3.3,3,5.2,4c5,2.6,10.1,4.9,15.1,7.5c2.4,1.2,4.6,2.7,6.8,4.3
		c1.3,1,1.9,2.4,1.5,4.2c-0.8,3.9-1.7,7.7-2.3,11.6c-0.7,4.5-1.1,9-1.7,13.4c-0.1,0.7-0.5,1.4-0.9,1.9c-2.1,2.1-4.4,4.1-6.4,6.3
		c-0.9,0.9-1.5,2.2-1.8,3.5c-0.7,2.9-1.6,5.8-1.7,8.8c-0.1,2.5-1.1,3.8-3.2,4.7c-1,0.4-1.1,1-0.7,2c0.4,1.2,0.9,2.6,0.6,3.9
		c-0.9,4.5-2,9-3.1,13.5c-0.2,0.7-0.4,1.3-0.5,1.9c-0.4,1.5,0,2.8,1.5,3.5c1.2,0.6,1.8,1.5,1.9,2.9c0.1,1.6,0.5,3.1,1.1,4.6
		c0.2,0.7,1,1.5,1.6,1.6c4.1,1,8.2,1.9,12.4,2.6c15,2.5,30,2.8,45.1,0.9c13-1.6,25.6-4.7,37.7-9.6c24.4-9.7,45.1-24.5,62.1-44.5
		c13.3-15.6,23.1-33.2,29.4-52.8c3.4-10.5,5.6-21.2,6.9-32.2c0.3-2.7-0.3-5.1-1.9-7.2c-2.9-3.8-6.4-6.9-10.5-9.3
		c-0.9-0.5-1.8-1.1-2.8-1.3c-3.7-0.8-7.4-1.7-11.2-2c-5.7-0.6-11.3-1.3-16.2-4.5c-0.3-0.2-0.8-0.1-1.4-0.2c0.6,2.7,2,4.5,4.1,5.6
		c4.5,2.2,9.1,4.3,13.8,6.3c2.4,1.1,2.8,1.8,1.7,4.3c-1.4,3.4-3.9,5.9-6.9,7.9c-5.6,3.8-11.7,6.5-18.1,8.7c-1.9,0.6-2.3,1.7-1.2,3.3
		c0.7,1.1,1.6,1.5,2.9,1.1c2.7-0.9,5.4-1.7,8.1-2.4c0.6-0.1,1.8,0.2,1.8,0.4c0.1,1.4,0.4,3.1-0.2,4.1c-2.7,4.4-5.7,8.6-8.6,13
		c-3,4.5-6.1,8.9-8.8,13.5c-1.9,3.1-3,6.4-1.8,10.3c0.9,3.1,0.1,6.1-1.9,8.8c-2.2,2.9-4.1,6-6,9c-0.5,0.7-0.8,1.5-1.1,2.3
		c-0.5,1.4-0.7,3-1.4,4.3c-2.9,4.7-6,9.3-9.2,13.9c-0.6,0.9-1.5,1.6-2.5,2.1c-2.5,1.3-5,2.6-7.6,3.7c-1.2,0.5-2.7,0.5-4.1,0.5
		c-1.3,0.1-1.9-0.7-2.3-1.9c-2.1-6.6-3.9-13.4-6.4-19.8c-2.3-5.7-3.1-11.3-1.3-17.2c1-3.3,0.5-6.5-0.9-9.6c-1.1-2.3-2-4.7-3.2-7
		c-1.6-3.2-2.9-6.3-1.3-9.9c0.1-0.2,0.1-0.5,0.1-0.7c0.3-2.4-0.6-3.5-3-3.9c-1.4-0.2-2.8-0.5-4.1-0.9c-2.8-0.9-5.4-1.4-8.5-0.6
		c-4.1,1-8.3,1.1-12.5,1.4c-0.9,0.1-2.1-0.5-2.9-1.1c-3.5-3.2-6.8-6.5-10.2-9.8c-2-2-3.4-4.5-3.5-7.5c-0.1-2.9,0.1-5.8-0.3-8.6
		c-0.5-3.5,0.5-6.4,2-9.4c1.9-3.7,4.1-6.9,7.9-8.9c0.4-0.2,0.9-0.8,0.9-1.2c0-2.7,1.4-4.6,3-6.5c0.9-1.1,1.9-2.3,2.6-3.5
		c1.4-2.3,1.2-3-1-4.7c-0.6-0.4-1.2-0.9-1.7-1.4c-1.9-1.7-2.6-3.7-1.5-6.1c0.9-2,1.9-4,2.8-5.9c0.7-1.4,1.7-2.1,3.4-2
		c1.3,0.1,2.7-0.1,4-0.4c1.6-0.3,2-1.1,1.3-2.6c-1.2-2.4-2.3-4.8-3.5-7.4c0.5-0.2,1-0.4,1.4-0.7c2.7-1.4,5.3-2.7,7.9-4.2
		c0.5-0.3,0.6-1.4,0.8-2.1c-0.6-0.2-1.3-0.7-1.9-0.7c-2.9,0.2-5.3,1.7-7.6,3.3c-0.5,0.4-1.1,0.7-1.8,1.1c-0.1-0.5-0.2-0.8-0.1-1
		c0.4-3.4,0.3-6.8,2.4-9.8c0.6-0.9,1.3-2.1-0.3-2.9c-3.7-1.9-3.7-6.1-0.3-8.9c0.3,0.2,0.7,0.4,1,0.8c0.8,1.1,2.3,1.7,2.2,3.6
		c0,1.4,0.3,2.9,1,4.1c1,1.8,2.3,3.4,3.4,5.2c0.4,0.6,0.6,1.5,0.6,2.2c0,1.3,0.5,1.8,1.6,1.1c2.3-1.6,4.5-3.4,6.9-5.1
		c1-0.7,2.1-1.3,3.2-1.5c4.4-0.7,8.8-1.3,13.2-1.9c1.7-0.2,2.7-1.1,3.1-2.6c0.3-0.9,0.4-1.9,0.4-2.9c0.2-2.6,2.9-6.5,5.3-7.4
		c1.4-0.5,1.7-1.5,0.6-2.4c-0.8-0.7-1.9-1.1-2.9-1.2c-4.1-0.6-5.5-2.7-4.4-6.6c0.6-2.1,1.2-4.2,1.7-6.4c0.1-0.4-0.2-1-0.3-1.5
		c-0.5,0.2-1.1,0.2-1.4,0.5c-0.5,0.4-1.1,0.9-1.4,1.4c-1.1,2.3-2.1,4.7-3,7c-1.1,2.8-1.5,5.6,0.5,8.3c0.5,0.6,0.6,1.9,0.3,2.7
		c-1,2.4-2.1,4.7-3.5,6.8c-0.6,0.9-2.3,1.2-3.5,1.4c-0.4,0.1-1.1-0.9-1.4-1.5c-0.8-1.3-1.5-2.7-2.4-3.9c-0.8-1.2-1.8-1.7-3.2-0.6
		c-1,0.8-2,0.7-2.7-0.3c-1.8-2.8-2.9-5.8-1.9-9.2c0.3-1.1,0.8-1.7,2-2.1c2.6-0.9,4.9-2.3,5.9-5.1c0.8-2.2,1.5-4.5,2.2-6.8
		c1.1-3.5,1.6-7.1,4.5-10c3.6-3.6,7.6-5.7,12.7-5.5c1.1,0,1.8,0.3,2.5,1.3c0.8,1.2,2.2,2.1,3.5,2.7c3,1.5,6.3,2.5,9,4.3
		c1.7,1.2,2.9,1.7,4.7,0.9c0.8-0.4,1.6-0.6,2.3-1c4.4-2.7,8.7-5.4,13.1-8.1c0.3-0.2,0.5-0.6,0.9-1.2c-3.4-0.5-6.5-1-9.5-1.4
		c-3-0.4-3.1-0.5-3.4-3.7c-0.4-3.9-0.7-7.8-1.2-11.7c-0.1-0.8-0.7-1.9-1.4-2.3c-7.2-4.1-14.4-8.4-21.8-11.9
		c-13.3-6.3-27.4-10-41.9-12.1c-1-0.2-2.1-0.4-3.1-0.2c-0.8,0.2-1.5,1-2.3,1.6c0.5,0.5,1,1.1,1.6,1.4c1.6,0.8,3.3,1.4,5.2,2.3
		c-2.4,3.1-4.6,5.8-6.8,8.6c-0.5,0.7-1,1.4-1.2,2.2c-1,4-2.1,7.9-2.7,12c-0.6,4.2-2,7.9-5.2,10.7c-0.5,0.5-1.1,1-1.4,1.7
		c-0.2,0.5-0.4,1.4-0.1,1.9c2.4,3.9,2.3,5.1-0.8,8.4c-2.6,2.8-5.3,5.4-9.2,6.3c-1.9,0.5-3.8,1.2-5.6,2c-2.5,1.1-5,2.4-7.3,3.8
		c-1.6,1-3.1,2.2-4.1,3.7c-2.3,3.3-4.3,6.8-6.3,10.3c-1,1.7-1.8,2-3.3,0.7c-1.1-0.9-2-2.2-2.5-3.5c-2.1-4.7-1.7-9.7-1.1-14.6
		c0.4-3.2,1.5-6.1,4.2-8.2c0.5-0.4,1-0.9,1.2-1.4c0.2-0.5,0.3-1.4,0-1.7c-1.3-1.5-1.4-3.1-0.8-4.8c0.5-1.6,1.3-3.1,2-4.7
		c2.5-5.8,2.1-8-2.6-12.3c-0.6-0.5-1.2-1.1-1.8-1.6c-1.8-1.5-2.5-4.5-1.5-6.6c0.8-1.8,1.8-3.5,2.6-5.3c0.7-1.6,1.8-2.4,3.5-2.6
		c3.5-0.4,6.6-1.3,7.4-5.4c0.1-0.3,0.4-0.6,0.5-1c0.1-0.4,0-0.9,0-1.6c-0.7,0.3-1.2,0.5-1.6,0.7c-2.1,1-4.3,2.1-6.4,3.1
		c-1.4,0.7-2.8,1.2-4,2c-3.9,2.8-6.4,6.7-8.9,10.6c-0.9,1.5-2.1,2.1-3.7,2.2c-1.8,0.1-3.3-0.5-4.4-2.1c-1-1.4-1-2.9-0.1-4.3
		c0.4-0.6,1.2-1,1.4-1.6c0.4-1,0.9-2.1,0.7-3.2c-0.2-1.4-1.5-0.9-2.4-0.8c-2.4,0.3-4.7,0.6-7.1,1c-1.4,0.2-2.8,0.6-4.6,1.1
		c0.9,0.8,1.4,1.3,2,1.6c1.3,0.8,1.7,1.8,0.9,3.2c-0.4,0.7-0.5,1.5-0.8,2.2c-0.5,1.2-1.2,2.3-2,3.9c-1.2-2.5-2-4.5-3-6.3
		c-0.3-0.5-1.3-1.1-1.8-1c-3,0.9-6.1,1.9-9,3.1c-1.4,0.5-2.2,1.8-1.1,3.3c0.8,1.1,0.5,2-0.1,3c-2.3,3.5-4.7,7-6.8,10.7
		c-1.8,3.1-4.4,4.9-7.6,6.2c-0.9,0.4-2.2,1.8-2.1,2.5c0.3,1.7,1.8,2.6,3.5,3.2c1.4,0.4,2.4-0.1,3.4-1c2.2-2.2,4.7-4.1,6.8-6.3
		c1-1,1.7-2.3,2.3-3.6c0.5-1.1,0.6-2.5,1.2-3.4c2-2.8,4.2-5.4,6.4-8.1c0.3-0.3,1-0.7,1.3-0.6c2.3,0.5,4.6,1.2,7.5,1.9
		c-1.9,1.2-3.3,2-4.7,2.9c-0.7,0.5-1.6,0.9-2.1,1.7c-2.9,4.8-6.2,9.4-5.8,15.5c0,0.4-0.2,0.8-0.2,1.3c0,0.5,0,1,0,1.5
		c0.5-0.2,1.3-0.2,1.6-0.5c1.4-1.4,2.7-3,4.1-4.4c1-1,1.5-2.1,1.2-3.6c-0.3-1.8-0.3-3.7-0.3-5.5c0-0.5,0-1.1,0.3-1.4
		c2.4-2,4.7-4.1,7.3-5.7c2.4-1.5,4.5,0.6,6.8,1.1c1.9,0.4,2.5,1.8,2.4,3.6c0,0.7-0.1,1.5-0.3,2.2c-0.8,2.2-0.3,3.9,1.4,5.4
		c0.5,0.4,0.9,0.9,1.3,1.3c1.5,1.4,1.8,5.9,0.2,7.2c-1.3,1-1.3,2-0.8,3.3c0.4,1.1,0.7,2.2,1.1,3.3c0.6,1.4,0.9,2.6-0.4,3.8
		c-1.4,1.4-2.6,2.8-4.8,1.5c-0.3-0.2-0.9-0.1-1.6-0.2c0.3,1.3,0.6,2.4,0.9,3.4c0.7,2.8-0.5,5.5-3.2,6.7c-1.2,0.5-2.2,0.6-3-0.7
		c-0.9-1.3-2-2.5-3-3.7c-1.3-1.6-1.5-3.4-0.8-5.2c0.6-1.4,1.5-2.8,2.3-4.1c1-1.7,2.1-3.3,3.1-4.9c1.7-2.7-0.8-5-0.9-7.5
		c0-0.1-0.5-0.3-0.8-0.4c-0.8-0.2-1.5-0.4-2.3-0.7c-1.1-0.4-1.8-0.1-2.2,0.9c-1.3,3-2.8,5.9-4,9c-1.5,4.1-1.4,4.2-5.7,4.4
		c-1.3,0.1-1.5,0.6-1.2,1.6c0.3,1.1,0.7,2.2,1.2,3.3c0.5,1.3,0.7,2.2-1.1,2.5c-1.2,0.2-2.3,0.7-3.5,0.9c-0.6,0.1-1.4-0.1-2.1-0.2
		c1.1-3.1,2-5.9,3-8.7c-0.8,0-1.3,0.2-1.6,0.5c-3.3,2.3-6.3,5.1-10.4,5.9c-0.6,0.1-1.1,0.5-1.6,0.9c-3.8,3.3-5.4,7.7-5.2,12.6
		c0.2,4.3,2.5,7.9,5.1,11.4c1.1,1.4,1.8,3.1,2.6,4.7c0.5,1,1,2,1.7,3.5c0.5-1.2,0.9-1.8,1-2.5c0.3-1.8,1.1-3.1,2.6-4.2
		c1.6-1.1,3.1-2.4,4.6-3.7c1.5-1.3,1.7-2.7,0.4-4.1c-0.8-0.8-0.8-1.4-0.1-2.1c2.3-2.2,3.5-4.9,4.1-8c0.1-0.7,0.4-1.4,0.6-2.1
		c0.5-1.5,1.6-1.9,2.8-1.1c2.3,1.6,4.6,3.2,6.8,5c0.3,0.2,0.3,1.2,0.1,1.7c-0.6,1.4-1.4,2.7-2,4.1c-0.2,0.4,0,1.3,0.4,1.6
		c0.4,0.3,1.2,0.2,1.7-0.1c0.7-0.3,1.3-0.9,1.9-1.4C217.7,200.4,219,199.2,220.6,197.7z M122.3,284.7c-0.2,0.1-0.3,0.2-0.5,0.3
		c2.6,41.1,18.3,76.2,47.9,104.9c16.6,16.1,36,27.9,58.1,35c-0.3-1.2-0.8-2.2-1.4-3c-1.2-1.4-2-2.9-2.1-4.7c-0.1-1.6-0.8-2.8-2-3.9
		c-1.5-1.4-2.5-3.2-2.9-5.4c-0.4-1.8-1.5-3.4-2.2-5.1c-0.6-1.5-1.2-3-1.6-4.6c-0.4-1.7,0.1-3.8-0.6-5.2c-3.4-6.3-5.4-13.1-7.2-19.9
		c-1.4-5.3-4-9.5-9-12c-1.6-0.8-3.1-1.8-4.4-3c-2.5-2.2-4.9-4.5-7.2-6.9c-1.5-1.6-2.7-3.5-4.2-5c-1.5-1.5-2.8-3-2.7-5.3
		c0.1-1.6,0-3.2-0.4-4.7c-0.8-3.1,0.3-5.4,2.1-7.7c3-3.9,1.3-8.1-1.3-10.7c-1.8-1.8-2.3-1.7-3.1,0.7c-0.2,0-0.4,0-0.5,0
		c-0.4-0.1-0.8-0.3-1.2-0.5c-4.7-1.9-8.4-5.1-11.7-8.9c-0.8-0.9-1.9-1.8-3-2.2c-3.5-1.3-7.1-2.2-10.6-3.4c-4.9-1.6-10-2.8-14.4-5.8
		c-1.4-0.9-2.1-2-2.9-3.5c-3.1-6.3-6.4-12.4-9.7-18.6c-0.3-0.5-0.7-0.9-1.3-1.6c-0.8,5.4,3.2,9.2,3.5,13.8c-0.1,0.1-0.3,0.2-0.4,0.3
		C124.1,286.8,123.2,285.8,122.3,284.7z M301.4,258.8c0.1,0.2,0.1,0.5,0.2,0.7c1.3-0.4,2.6-0.6,3.8-1.1c6.4-2.9,13-4.4,20.1-3.1
		c1.3,0.2,1.8,0.6,1.8,1.9c0,1.5,0.1,2.9,0.3,4.4c0.1,0.7,0.7,1.6,1.3,1.9c3.4,1.6,6.8,3,10.2,4.5c0.4,0.1,0.8,0.1,1.3,0.2
		c-0.1-0.7-0.2-1.1-0.3-1.6c-0.4-2.7,0.5-4.6,3.7-3.6c4.5,1.4,9.1,2.6,14,2.2c3.4-0.3,5.6-1.8,7-4.7c0.4-0.9,0.8-1.8,1-2.7
		c0.2-0.9,0-1.9,0-2.8c-0.8,0.1-1.8-0.1-2.4,0.4c-2.2,1.5-3.9,0.7-5.8-0.6c-3.6-2.3-7.2-4.6-10.8-6.8c-0.8-0.5-1.9-1.1-2.3,0.1
		c-0.2,0.6,0.4,1.7,0.9,2.4c0.3,0.4,1.2,0.5,1.6,0.9c0.5,0.6,1,1.4,1,2.1c0,0.6-0.8,1.7-1.1,1.7c-1.6-0.1-3.4,1-4.7-0.8
		c-1.2-1.6-2.4-3.2-3.8-4.7c-0.5-0.5-2-1.3-2.1,0.2c0,2.5-1.7,3.8-2.8,5.6c-0.9,1.5-3,1.5-4.2,0.2c-1.2-1.3-1-2.4,0.7-3.1
		c2.2-1,2.6-3.6,0.6-5c-4.5-3.3-9.6-4.4-15.1-3.2c-0.5,0.1-1.1,0.5-1.5,1c-1.6,2.1-3.3,4.1-4.5,6.4c-1.7,3.1-3.8,5.7-7.3,6.6
		C301.9,258.4,301.7,258.6,301.4,258.8z M380.5,296.8c0.1,0,0.2-0.1,0.3-0.1c-0.4-1.3-0.6-2.6-1.2-3.7c-2.4-4.4-4.9-8.7-7.4-13
		c-1.1-2-2-4.2-3.3-6.1c-0.6-0.9-2.2-2.3-2.8-2c-1.5,0.6-1.4,2.4-0.9,3.7c0.9,2.2,2.2,4.2,3.4,6.2c0.6,1.1,1.6,2,2.1,3.2
		c1.1,2.5,1.6,5.3,2.9,7.7c1.3,2.3,3.1,4.3,5,6.2c1.1,1.2,1.9,0.7,1.9-1C380.5,297.4,380.5,297.1,380.5,296.8z"/>
	<path class="st0" d="M220.6,197.7c-1.6,1.5-2.9,2.7-4.2,3.9c-0.6,0.5-1.2,1.1-1.9,1.4c-0.5,0.2-1.3,0.3-1.7,0.1
		c-0.4-0.3-0.6-1.2-0.4-1.6c0.6-1.4,1.4-2.7,2-4.1c0.2-0.5,0.2-1.4-0.1-1.7c-2.2-1.7-4.5-3.4-6.8-5c-1.3-0.9-2.3-0.5-2.8,1.1
		c-0.2,0.7-0.5,1.4-0.6,2.1c-0.6,3.1-1.8,5.8-4.1,8c-0.7,0.7-0.7,1.3,0.1,2.1c1.3,1.4,1.1,2.8-0.4,4.1c-1.5,1.3-3,2.6-4.6,3.7
		c-1.5,1.1-2.4,2.4-2.6,4.2c-0.1,0.7-0.5,1.3-1,2.5c-0.7-1.5-1.2-2.5-1.7-3.5c-0.8-1.6-1.6-3.3-2.6-4.7c-2.6-3.4-4.9-7-5.1-11.4
		c-0.2-4.9,1.4-9.3,5.2-12.6c0.5-0.4,1-0.8,1.6-0.9c4.1-0.8,7.1-3.7,10.4-5.9c0.4-0.3,0.8-0.5,1.6-0.5c-1,2.8-1.9,5.6-3,8.7
		c0.8,0.1,1.5,0.3,2.1,0.2c1.2-0.2,2.3-0.7,3.5-0.9c1.8-0.3,1.7-1.2,1.1-2.5c-0.5-1.1-0.8-2.2-1.2-3.3c-0.3-1-0.1-1.6,1.2-1.6
		c4.3-0.2,4.2-0.3,5.7-4.4c1.1-3.1,2.6-6,4-9c0.5-1,1.1-1.3,2.2-0.9c0.7,0.3,1.5,0.4,2.3,0.7c0.3,0.1,0.8,0.2,0.8,0.4
		c0.1,2.5,2.5,4.8,0.9,7.5c-1,1.7-2.1,3.3-3.1,4.9c-0.8,1.3-1.7,2.7-2.3,4.1c-0.7,1.8-0.5,3.6,0.8,5.2c1,1.2,2,2.4,3,3.7
		c0.9,1.2,1.9,1.2,3,0.7c2.7-1.2,3.9-3.9,3.2-6.7c-0.3-1-0.5-2.1-0.9-3.4c0.8,0.1,1.3,0,1.6,0.2c2.2,1.4,3.4-0.1,4.8-1.5
		c1.3-1.3,1-2.4,0.4-3.8c-0.4-1.1-0.7-2.2-1.1-3.3c-0.5-1.3-0.5-2.3,0.8-3.3c1.6-1.2,1.4-5.8-0.2-7.2c-0.5-0.4-0.9-0.9-1.3-1.3
		c-1.7-1.5-2.2-3.2-1.4-5.4c0.3-0.7,0.3-1.4,0.3-2.2c0.1-1.8-0.5-3.2-2.4-3.6c-2.2-0.5-4.4-2.6-6.8-1.1c-2.6,1.7-4.9,3.8-7.3,5.7
		c-0.3,0.2-0.4,0.9-0.3,1.4c0,1.8,0,3.7,0.3,5.5c0.3,1.5-0.2,2.6-1.2,3.6c-1.4,1.4-2.7,3-4.1,4.4c-0.4,0.4-1.1,0.4-1.6,0.5
		c0-0.5-0.1-1,0-1.5c0-0.4,0.2-0.8,0.2-1.3c-0.4-6,2.9-10.7,5.8-15.5c0.4-0.7,1.3-1.2,2.1-1.7c1.4-0.9,2.8-1.7,4.7-2.9
		c-2.9-0.8-5.2-1.4-7.5-1.9c-0.4-0.1-1.1,0.2-1.3,0.6c-2.2,2.6-4.4,5.3-6.4,8.1c-0.7,0.9-0.7,2.3-1.2,3.4c-0.6,1.3-1.3,2.6-2.3,3.6
		c-2.2,2.2-4.6,4.2-6.8,6.3c-1,1-2,1.5-3.4,1c-1.7-0.5-3.2-1.5-3.5-3.2c-0.1-0.7,1.1-2.1,2.1-2.5c3.3-1.3,5.8-3.1,7.6-6.2
		c2.1-3.6,4.5-7.1,6.8-10.7c0.6-1,0.9-1.9,0.1-3c-1.1-1.5-0.3-2.7,1.1-3.3c2.9-1.2,6-2.2,9-3.1c0.5-0.1,1.5,0.5,1.8,1
		c1,1.8,1.8,3.8,3,6.3c0.8-1.6,1.5-2.7,2-3.9c0.3-0.7,0.5-1.5,0.8-2.2c0.8-1.4,0.4-2.4-0.9-3.2c-0.6-0.4-1.1-0.9-2-1.6
		c1.8-0.4,3.2-0.8,4.6-1.1c2.3-0.4,4.7-0.8,7.1-1c0.9-0.1,2.3-0.5,2.4,0.8c0.1,1-0.3,2.2-0.7,3.2c-0.3,0.6-1.1,1-1.4,1.6
		c-0.8,1.4-0.9,2.9,0.1,4.3c1.1,1.6,2.6,2.2,4.4,2.1c1.6-0.1,2.8-0.7,3.7-2.2c2.5-3.9,5-7.8,8.9-10.6c1.2-0.9,2.7-1.4,4-2
		c2.1-1,4.3-2.1,6.4-3.1c0.4-0.2,0.8-0.4,1.6-0.7c0,0.7,0.1,1.2,0,1.6c-0.1,0.3-0.4,0.6-0.5,1c-0.7,4.1-3.9,5-7.4,5.4
		c-1.7,0.2-2.8,1-3.5,2.6c-0.7,1.8-1.7,3.5-2.6,5.3c-1,2.1-0.2,5.1,1.5,6.6c0.6,0.5,1.2,1,1.8,1.6c4.6,4.3,5.1,6.5,2.6,12.3
		c-0.7,1.6-1.5,3.1-2,4.7c-0.6,1.7-0.5,3.3,0.8,4.8c0.3,0.3,0.2,1.2,0,1.7c-0.2,0.5-0.7,1-1.2,1.4c-2.7,2.1-3.8,5-4.2,8.2
		c-0.6,4.9-1,9.9,1.1,14.6c0.6,1.3,1.5,2.6,2.5,3.5c1.5,1.3,2.3,0.9,3.3-0.7c2.1-3.5,4-7,6.3-10.3c1-1.5,2.6-2.8,4.1-3.7
		c2.3-1.5,4.8-2.7,7.3-3.8c1.8-0.8,3.7-1.5,5.6-2c3.9-0.9,6.6-3.5,9.2-6.3c3.1-3.3,3.1-4.5,0.8-8.4c-0.3-0.5-0.1-1.3,0.1-1.9
		c0.3-0.6,0.8-1.2,1.4-1.7c3.2-2.9,4.6-6.5,5.2-10.7c0.6-4,1.7-8,2.7-12c0.2-0.8,0.7-1.5,1.2-2.2c2.2-2.8,4.4-5.6,6.8-8.6
		c-1.9-0.8-3.6-1.5-5.2-2.3c-0.6-0.3-1.1-0.9-1.6-1.4c0.7-0.6,1.4-1.4,2.3-1.6c1-0.2,2.1,0,3.1,0.2c14.5,2.2,28.6,5.9,41.9,12.1
		c7.5,3.5,14.6,7.8,21.8,11.9c0.7,0.4,1.3,1.5,1.4,2.3c0.5,3.9,0.8,7.8,1.2,11.7c0.3,3.1,0.4,3.3,3.4,3.7c3.1,0.4,6.1,0.9,9.5,1.4
		c-0.5,0.6-0.6,1.1-0.9,1.2c-4.3,2.7-8.7,5.4-13.1,8.1c-0.7,0.4-1.6,0.7-2.3,1c-1.8,0.8-3,0.3-4.7-0.9c-2.7-1.9-6-2.8-9-4.3
		c-1.3-0.7-2.7-1.6-3.5-2.7c-0.7-1.1-1.4-1.3-2.5-1.3c-5.1-0.2-9,1.9-12.7,5.5c-2.9,2.9-3.4,6.5-4.5,10c-0.7,2.3-1.4,4.5-2.2,6.8
		c-1,2.8-3.3,4.2-5.9,5.1c-1.1,0.4-1.6,1-2,2.1c-1,3.4,0.2,6.4,1.9,9.2c0.7,1.1,1.7,1.2,2.7,0.3c1.4-1.2,2.4-0.6,3.2,0.6
		c0.9,1.3,1.5,2.6,2.4,3.9c0.4,0.6,1.1,1.6,1.4,1.5c1.2-0.2,2.9-0.5,3.5-1.4c1.5-2.1,2.5-4.5,3.5-6.8c0.3-0.7,0.2-2-0.3-2.7
		c-2-2.7-1.7-5.5-0.5-8.3c0.9-2.4,1.9-4.7,3-7c0.3-0.6,0.8-1.1,1.4-1.4c0.4-0.3,1-0.3,1.4-0.5c0.1,0.5,0.4,1,0.3,1.5
		c-0.5,2.1-1.1,4.3-1.7,6.4c-1.1,3.9,0.4,6,4.4,6.6c1,0.1,2.1,0.6,2.9,1.2c1.1,0.9,0.8,1.9-0.6,2.4c-2.3,0.9-5.1,4.8-5.3,7.4
		c-0.1,1-0.2,1.9-0.4,2.9c-0.4,1.5-1.4,2.4-3.1,2.6c-4.4,0.5-8.8,1.1-13.2,1.9c-1.1,0.2-2.2,0.8-3.2,1.5c-2.3,1.6-4.5,3.4-6.9,5.1
		c-1.1,0.8-1.6,0.3-1.6-1.1c0-0.7-0.2-1.6-0.6-2.2c-1.1-1.8-2.5-3.4-3.4-5.2c-0.6-1.2-1-2.7-1-4.1c0-1.8-1.4-2.4-2.2-3.6
		c-0.2-0.3-0.7-0.5-1-0.8c-3.3,2.8-3.4,7,0.3,8.9c1.6,0.8,0.9,2.1,0.3,2.9c-2.1,3-2,6.5-2.4,9.8c0,0.2,0.1,0.5,0.1,1
		c0.7-0.4,1.2-0.7,1.8-1.1c2.3-1.6,4.7-3.2,7.6-3.3c0.6,0,1.3,0.4,1.9,0.7c-0.3,0.7-0.3,1.8-0.8,2.1c-2.6,1.5-5.3,2.8-7.9,4.2
		c-0.5,0.2-1,0.5-1.4,0.7c1.2,2.6,2.3,5,3.5,7.4c0.8,1.5,0.3,2.4-1.3,2.6c-1.3,0.2-2.7,0.4-4,0.4c-1.6-0.1-2.7,0.6-3.4,2
		c-1,2-1.9,3.9-2.8,5.9c-1.1,2.4-0.4,4.4,1.5,6.1c0.5,0.5,1.1,1,1.7,1.4c2.2,1.6,2.4,2.3,1,4.7c-0.8,1.2-1.7,2.4-2.6,3.5
		c-1.6,1.9-3,3.9-3,6.5c0,0.4-0.5,1-0.9,1.2c-3.7,2-6,5.2-7.9,8.9c-1.5,3-2.5,5.9-2,9.4c0.4,2.8,0.2,5.7,0.3,8.6
		c0.1,3,1.4,5.4,3.5,7.5c3.3,3.3,6.7,6.6,10.2,9.8c0.7,0.7,1.9,1.2,2.9,1.1c4.2-0.3,8.5-0.4,12.5-1.4c3.1-0.8,5.7-0.3,8.5,0.6
		c1.3,0.4,2.7,0.7,4.1,0.9c2.4,0.4,3.3,1.5,3,3.9c0,0.2,0,0.5-0.1,0.7c-1.6,3.6-0.3,6.8,1.3,9.9c1.2,2.3,2.1,4.7,3.2,7
		c1.4,3.1,1.9,6.3,0.9,9.6c-1.8,5.9-1,11.5,1.3,17.2c2.6,6.4,4.3,13.2,6.4,19.8c0.4,1.2,1,2,2.3,1.9c1.4-0.1,2.9,0,4.1-0.5
		c2.6-1,5.1-2.3,7.6-3.7c0.9-0.5,1.9-1.2,2.5-2.1c3.1-4.6,6.2-9.2,9.2-13.9c0.8-1.2,0.9-2.8,1.4-4.3c0.3-0.8,0.6-1.6,1.1-2.3
		c2-3,3.8-6.1,6-9c2-2.7,2.8-5.7,1.9-8.8c-1.2-3.9,0-7.2,1.8-10.3c2.8-4.6,5.8-9,8.8-13.5c2.9-4.3,5.9-8.5,8.6-13
		c0.6-1,0.3-2.7,0.2-4.1c0-0.2-1.3-0.6-1.8-0.4c-2.7,0.7-5.4,1.5-8.1,2.4c-1.3,0.4-2.2,0-2.9-1.1c-1.1-1.7-0.7-2.7,1.2-3.3
		c6.4-2.2,12.5-4.8,18.1-8.7c3-2,5.4-4.5,6.9-7.9c1.1-2.5,0.7-3.2-1.7-4.3c-4.6-2-9.2-4.1-13.8-6.3c-2.1-1-3.5-2.9-4.1-5.6
		c0.7,0.1,1.1,0.1,1.4,0.2c5,3.1,10.5,3.9,16.2,4.5c3.8,0.4,7.5,1.3,11.2,2c1,0.2,1.9,0.7,2.8,1.3c4.1,2.5,7.6,5.5,10.5,9.3
		c1.6,2.1,2.3,4.5,1.9,7.2c-1.3,10.9-3.4,21.7-6.9,32.2c-6.3,19.5-16.2,37.1-29.4,52.8c-17,20-37.7,34.8-62.1,44.5
		c-12.1,4.8-24.7,7.9-37.7,9.6c-15.1,1.9-30.1,1.6-45.1-0.9c-4.2-0.7-8.3-1.6-12.4-2.6c-0.6-0.2-1.4-1-1.6-1.6
		c-0.5-1.5-0.9-3.1-1.1-4.6c-0.1-1.4-0.7-2.3-1.9-2.9c-1.5-0.8-1.9-2-1.5-3.5c0.2-0.7,0.4-1.3,0.5-1.9c1.1-4.5,2.2-9,3.1-13.5
		c0.2-1.2-0.2-2.6-0.6-3.9c-0.4-1-0.3-1.6,0.7-2c2.1-0.9,3.1-2.2,3.2-4.7c0.1-3,1-5.9,1.7-8.8c0.3-1.2,1-2.5,1.8-3.5
		c2-2.2,4.3-4.2,6.4-6.3c0.5-0.5,0.9-1.2,0.9-1.9c0.6-4.5,1-9,1.7-13.4c0.6-3.9,1.5-7.8,2.3-11.6c0.4-1.8-0.3-3.3-1.5-4.2
		c-2.1-1.6-4.4-3.1-6.8-4.3c-5-2.6-10.1-4.9-15.1-7.5c-1.9-1-3.6-2.5-5.2-4c-2.3-2.1-4.3-4.4-7.8-4.5c-1.5,0-3.1-1.2-4.5-2.2
		c-1.5-1.1-2.8-2.4-3.9-3.8c-1.5-1.8-3.3-2.6-5.6-2.6c-5-0.1-9.9-1.1-14.7-2.8c-0.4-0.1-1.1,0.1-1.5,0.4c-1.6,1.1-3.1,2.4-4.7,3.4
		c-1.7,1.1-3.5,1.7-5.6,1.4c-0.6-0.1-1.4,0-2,0.2c-3.5,0.8-5.5-0.6-6-4.2c-0.2-1.9-0.6-3.8-0.7-5.6c0-1.8-0.8-2.2-2.4-2.1
		c-1.1,0.1-2.2,0-3.3,0c-2.7,0-3.5-1.7-2.3-4.2c1-2.1,1.6-4.5,2.5-7.1c-2.9,0.3-5,0.6-6.1,3.1c-0.6,1.4-1.1,3.2-3.2,3.4
		c-2.5,0.3-4.9,0-6.9-1.7c-0.5-0.4-0.9-1.1-1.2-1.8c-2-4.5-1.7-9-0.3-13.6c0.1-0.4,0.2-0.8,0.4-1.2c0.9-3.5,3.6-5.5,7.2-5.3
		c1.7,0.1,3.4,0.3,5.1,0.6c0.9,0.1,1.4,0,1.9-0.9c1.2-2.6,4.1-3,6.6-1.7c2.7,1.4,3.6,3.7,4.6,6.2c0.7,1.8,1.9,3.3,2.8,5
		c0.3,0,0.6-0.1,0.9-0.1c0.2-0.9,0.9-1.9,0.7-2.6c-0.5-2.1-1.1-4.1-2.1-6c-0.7-1.6-0.8-2.9,0.2-4.3c0.8-1.1,1.5-2.3,2.5-3.1
		c4.5-3.4,7.9-7.6,10-12.8c1.1-2.7,3-4.5,5.7-5.3c2.3-0.7,3.4-2.2,3.8-4.4c0.3-1.4,1.1-2.1,2.4-2.3c0.8-0.1,1.6-0.5,2.3-0.5
		c4.5,0.5,8.1-2,12-3.4c1.4-0.5,1.4-2.6,0.2-3.8c-2-2-4-3.9-6-5.9c-0.4-0.4-0.5-0.9-0.8-1.4c0.5-0.2,1.1-0.5,1.6-0.6
		c0.8-0.1,1.8-0.2,2.6,0.1c2.6,0.9,4.8-0.1,6.9-1.4c0.6-0.4,1.3-0.6,1.9-0.9c0.2,0.1,0.4,0.2,0.5,0.4c-1,2.5-2.1,4.9-3.1,7.4
		c2.9,3,5.4,3.6,9.2,1.9c1.4-0.6,1.5-2,1.4-3.3c-0.1-1.1-0.3-2.2-1.9-2.2c-1.4,0-2-0.8-2-2.3c0-4-0.1-7.9-0.1-11.9
		c0-0.4,0-0.8-0.1-1.1c-2.4-3.3-2.3-7.3-2.8-11C221,201,220.9,199.6,220.6,197.7z M391.1,348.2c-0.2-0.1-0.4-0.1-0.7-0.2
		c-1.9,2.6-3.8,5.2-5.8,7.7c-0.4,0.5-1,0.7-1.5,1.1c-0.5,0.4-1.2,0.7-1.5,1.3c-1.1,2.3-1.9,4.7-3.1,7c-0.7,1.2-1.3,2.4-0.5,3.5
		c0.8,1,1.9,2.1,3.1,2.4c1.6,0.4,2.6-1,3.2-2.5c1.5-3.9,3.3-7.6,4.6-11.5C390,354.2,390.4,351.1,391.1,348.2z M168.4,289.5
		c0.1,0,0.2,0.1,0.3,0.1c0.2,0,0.5,0,0.7-0.1c3.2-0.6,6.2,0,8.3,2.6c2.2,2.7,5,2.1,8,1.7c-0.3-0.7-0.6-1.4-1.2-1.6
		c-2.9-1.5-5.9-2.8-8.9-4.2C173.6,287,169.6,287.8,168.4,289.5z M185.1,297.3c3.4,2.2,6.8-0.4,10.2,0.1c-0.3-2-1.3-2.7-3.6-2.9
		C188,294.1,185.9,295,185.1,297.3z M202.7,298.2c-0.6-2.3-2.3-3.1-3.8-2.2c-0.3,0.2-0.5,0.6-0.5,0.9c0,0.3,0.3,0.8,0.6,0.8
		C200.1,297.9,201.3,298,202.7,298.2z"/>
	<path class="st0" d="M122.3,284.7c0.9,1.1,1.8,2.1,2.8,3.2c0.1-0.1,0.3-0.2,0.4-0.3c-0.3-4.7-4.3-8.5-3.5-13.8
		c0.6,0.7,1.1,1.1,1.3,1.6c3.3,6.2,6.6,12.4,9.7,18.6c0.7,1.5,1.5,2.6,2.9,3.5c4.4,3,9.5,4.2,14.4,5.8c3.5,1.2,7.1,2.1,10.6,3.4
		c1.1,0.4,2.2,1.3,3,2.2c3.3,3.8,7,7,11.7,8.9c0.4,0.2,0.8,0.3,1.2,0.5c0.2,0.1,0.4,0,0.5,0c0.8-2.3,1.3-2.5,3.1-0.7
		c2.6,2.7,4.3,6.8,1.3,10.7c-1.8,2.3-2.9,4.7-2.1,7.7c0.4,1.5,0.4,3.2,0.4,4.7c-0.1,2.3,1.2,3.8,2.7,5.3c1.5,1.5,2.7,3.4,4.2,5
		c2.3,2.4,4.7,4.7,7.2,6.9c1.3,1.2,2.8,2.2,4.4,3c5,2.6,7.6,6.8,9,12c1.8,6.8,3.9,13.6,7.2,19.9c0.8,1.4,0.3,3.5,0.6,5.2
		c0.3,1.6,0.9,3.1,1.6,4.6c0.7,1.7,1.9,3.3,2.2,5.1c0.5,2.1,1.4,3.9,2.9,5.4c1.2,1.1,1.9,2.3,2,3.9c0.1,1.9,1,3.3,2.1,4.7
		c0.7,0.8,1.1,1.8,1.4,3c-22.1-7.2-41.5-18.9-58.1-35c-29.6-28.8-45.3-63.9-47.9-104.9C122,284.9,122.1,284.8,122.3,284.7z"/>
	<path class="st0" d="M301.4,258.8c0.2-0.2,0.5-0.4,0.7-0.5c3.6-1,5.6-3.5,7.3-6.6c1.2-2.3,3-4.3,4.5-6.4c0.3-0.4,0.9-0.8,1.5-1
		c5.5-1.1,10.5-0.1,15.1,3.2c1.9,1.4,1.6,4.1-0.6,5c-1.7,0.7-1.9,1.8-0.7,3.1c1.2,1.3,3.3,1.3,4.2-0.2c1.1-1.7,2.8-3.1,2.8-5.6
		c0-1.5,1.6-0.7,2.1-0.2c1.4,1.4,2.6,3,3.8,4.7c1.3,1.8,3.1,0.7,4.7,0.8c0.4,0,1.1-1.1,1.1-1.7c0-0.7-0.5-1.5-1-2.1
		c-0.4-0.4-1.3-0.4-1.6-0.9c-0.5-0.7-1.1-1.8-0.9-2.4c0.4-1.1,1.5-0.6,2.3-0.1c3.6,2.3,7.3,4.5,10.8,6.8c1.9,1.2,3.6,2.1,5.8,0.6
		c0.6-0.4,1.6-0.3,2.4-0.4c0,0.9,0.1,1.9,0,2.8c-0.2,0.9-0.6,1.9-1,2.7c-1.4,2.9-3.6,4.5-7,4.7c-4.9,0.4-9.5-0.8-14-2.2
		c-3.2-1-4,0.9-3.7,3.6c0.1,0.5,0.2,0.9,0.3,1.6c-0.5-0.1-0.9-0.1-1.3-0.2c-3.4-1.5-6.9-2.9-10.2-4.5c-0.6-0.3-1.2-1.2-1.3-1.9
		c-0.3-1.4-0.3-2.9-0.3-4.4c0-1.3-0.5-1.7-1.8-1.9c-7.1-1.3-13.7,0.2-20.1,3.1c-1.2,0.5-2.5,0.7-3.8,1.1
		C301.6,259.2,301.5,259,301.4,258.8z"/>
	<path class="st0" d="M380.5,296.8c0,0.3,0,0.6,0,0.9c-0.1,1.7-0.8,2.2-1.9,1c-1.8-1.9-3.7-3.9-5-6.2c-1.3-2.4-1.9-5.1-2.9-7.7
		c-0.5-1.1-1.5-2.1-2.1-3.2c-1.2-2-2.5-4-3.4-6.2c-0.5-1.2-0.7-3.1,0.9-3.7c0.6-0.2,2.2,1.1,2.8,2c1.3,1.9,2.2,4.1,3.3,6.1
		c2.5,4.3,5,8.6,7.4,13c0.6,1.1,0.8,2.5,1.2,3.7C380.7,296.7,380.6,296.7,380.5,296.8z"/>
	<path d="M391.1,348.2c-0.7,2.9-1.1,6-2.1,8.8c-1.3,3.9-3.1,7.7-4.6,11.5c-0.6,1.5-1.6,2.8-3.2,2.5c-1.2-0.3-2.3-1.4-3.1-2.4
		c-0.9-1.1-0.2-2.3,0.5-3.5c1.2-2.2,2-4.7,3.1-7c0.3-0.5,0.9-0.9,1.5-1.3c0.5-0.4,1.1-0.7,1.5-1.1c2-2.5,3.9-5.1,5.8-7.7
		C390.7,348.1,390.9,348.1,391.1,348.2z"/>
	<path d="M168.4,289.5c1.3-1.7,5.2-2.5,7.3-1.5c3,1.4,6,2.7,8.9,4.2c0.5,0.3,0.9,1,1.2,1.6c-3,0.4-5.8,1-8-1.7
		c-2.1-2.6-5.1-3.2-8.3-2.6c-0.2,0-0.5,0.1-0.7,0.1C168.6,289.6,168.5,289.6,168.4,289.5z"/>
	<path d="M185.1,297.3c0.8-2.3,2.9-3.2,6.6-2.8c2.2,0.2,3.2,0.9,3.6,2.9C191.8,296.9,188.5,299.5,185.1,297.3z"/>
	<path d="M202.7,298.2c-1.4-0.2-2.6-0.3-3.8-0.5c-0.2,0-0.6-0.5-0.6-0.8c0-0.3,0.2-0.7,0.5-0.9C200.4,295.1,202.1,295.8,202.7,298.2
		z"/>
</g>
<g>
	<path d="M83.6,341l-71.5,14.3L2.1,305.1l15.6-3.2l6.2,30.8l12.3-2.4l-5.5-27.8l15.6-3.2l5.5,27.8l27.9-5.6L83.6,341z M42.3,221.7
		c8,0.7,14.7,2.9,20.1,6.4c5.2,3.7,9.1,8.3,11.5,13.8c2.4,5.6,3.3,11.6,2.8,18.3c-0.5,6.6-2.5,12.5-5.9,17.6
		c-3.4,5.1-7.9,9-13.7,11.7c-5.9,2.7-12.7,3.7-20.8,3c-8-0.7-14.7-2.9-20.1-6.4c-5.2-3.7-9.1-8.2-11.5-13.8S1.3,260.6,1.8,254
		s2.5-12.5,5.8-17.5c3.4-5.1,7.9-9,13.7-11.7C27.2,222.1,34.1,221.1,42.3,221.7z M40.5,242.1c-4.4-0.3-8.1,0-11.1,0.8
		c-3,0.9-5.5,2.4-7.3,4.5c-1.8,2.1-2.7,4.7-3.1,8c-0.2,3.2,0.2,6,1.6,8.4c1.3,2.4,3.5,4.3,6.4,5.6s6.6,2.2,10.9,2.7
		c4.4,0.3,8.1,0,11.1-0.8c3-0.9,5.5-2.4,7.3-4.5c1.8-2.1,2.7-4.7,3.1-8c0.2-3.2-0.2-6-1.6-8.4c-1.3-2.4-3.5-4.3-6.4-5.6
		C48.5,243.3,44.9,242.4,40.5,242.1z M28,159.9l7.7-18.2l43.1,18.1c5.1,2.2,9.1,5.2,11.8,9.2c2.7,4,4.1,8.7,4.4,13.7
		c0.1,5.3-1,10.8-3.3,16.4c-2.5,5.8-5.5,10.5-9.5,14s-8.2,5.6-12.8,6.5c-4.7,0.8-9.7,0.2-14.7-1.9l-43.3-18l7.7-18.2L60.5,199
		c2.1,0.9,4.1,1.3,6.2,1s3.8-1,5.4-2.2c1.6-1.2,2.8-2.9,3.8-4.9c0.9-2.1,1.2-4.2,1-6.2c-0.2-2.1-1-3.8-2.2-5.4
		c-1.2-1.6-2.9-2.8-4.9-3.8L28,159.9z M85.9,77l56,46.6l-10.6,12.7l-46.3-4.2l-0.2,0.2l29.4,24.6l-12.7,15.3l-56.1-46.8l10.8-13
		l45.9,4.5l0.3-0.4L73.2,92.2L85.9,77z M163.6,110l-23.6,15.3l-39.8-61.1l23.3-15.1c6.2-4.1,12.5-6.4,18.7-6.9
		c6.1-0.4,12,0.7,17.5,3.6s10.2,7.6,14.4,14c4.2,6.4,6.5,12.7,6.9,18.8s-0.7,12-3.7,17.3C174.4,101.2,169.7,106,163.6,110z
		 M147.4,100.3l6.4-4.2c3-2,5.2-4.1,6.7-6.4s2-5.2,1.7-8.2c-0.4-3.2-2-6.8-4.8-11.1c-2.8-4.2-5.5-7.2-8.1-8.8
		c-2.7-1.7-5.4-2.3-8.2-1.8c-2.8,0.5-5.9,1.7-9,3.7l-5.8,3.8L147.4,100.3z M205.4,87.6l-20.5,6l2.7-76.8l26.1-7.6l43.5,63.3l-20.5,6
		l-30.1-46.4l-0.6,0.2L205.4,87.6z M193.6,61l38.6-11.2l4.2,14.1l-38.6,11.2L193.6,61z M240.6,18.8l-0.3-16l63.4-1.1l0.3,16l-22,0.2
		l1.1,57.1l-19.6,0.4l-1.1-56.9L240.6,18.8z M333.9,7.7l-12.5,71.9l-19.5-3.3l12.5-71.9L333.9,7.7z M399.9,69.5
		c-3.1,7.5-7.1,13.2-12.2,17.2s-10.6,6.3-16.7,6.9c-6.1,0.6-12.2-0.3-18.2-2.7c-6.2-2.5-11.2-6.1-15.1-10.7
		c-3.9-4.6-6.1-10.2-7-16.5c-0.8-6.3,0.3-13.2,3.4-20.7c3.1-7.5,7.1-13.2,12.2-17.2c4.9-4,10.6-6.3,16.5-7
		c6.1-0.6,12.2,0.3,18.4,2.8c6.2,2.5,11.2,6.1,15,10.8c3.9,4.6,6.3,10.1,7.1,16.5C404.1,55.1,403,62,399.9,69.5z M381.1,61.8
		c1.6-4,2.5-7.7,2.6-10.8c0.1-3.2-0.7-5.9-2.1-8.2c-1.5-2.3-3.7-4-6.8-5.3c-3.1-1.3-5.9-1.6-8.6-0.9c-2.6,0.6-5.1,2.1-7.3,4.5
		c-2.2,2.4-4.1,5.5-5.8,9.6c-1.6,4-2.5,7.7-2.6,10.8c-0.1,3.2,0.7,5.9,2.1,8.2c1.5,2.3,3.7,4,6.8,5.3c3.1,1.3,5.9,1.6,8.6,0.9
		c2.6-0.6,5.1-2.1,7.3-4.5C377.6,69.2,379.5,65.9,381.1,61.8z M478.6,87l-47,55.8L419,132.2l4.4-46.2l-0.2-0.2L398.6,115l-15.1-12.7
		l47-55.8l12.8,10.9l-4.7,46l0.4,0.3l24.4-29.4L478.6,87z M472.8,216.1l71.7-13.7l9.5,50.3l-15.7,2.9l-5.9-31l-12.4,2.4l5.3,27.9
		l-15.7,2.9l-5.3-27.9l-28,5.4L472.8,216.1z M512.9,335.7c-8.1-0.8-14.8-3-20-6.7s-9.1-8.4-11.4-13.9c-2.4-5.7-3.2-11.6-2.6-18.2
		c0.6-6.6,2.6-12.4,6-17.5s8-8.8,13.9-11.6c5.8-2.6,12.8-3.6,20.8-2.7c8.1,0.8,14.8,3,20,6.7c5.2,3.7,9,8.2,11.4,13.9
		s3.2,11.6,2.6,18.4c-0.6,6.6-2.6,12.4-6,17.5c-3.4,5.1-7.9,8.9-13.9,11.6C527.9,335.6,520.8,336.6,512.9,335.7z M514.8,315.5
		c4.4,0.5,8.1,0.2,11.1-0.6c3.2-1,5.5-2.3,7.4-4.4c1.8-2,2.8-4.8,3.2-8c0.3-3.2-0.2-6.2-1.6-8.5c-1.4-2.4-3.4-4.4-6.3-5.8
		c-2.9-1.4-6.4-2.3-10.8-2.8s-8.1-0.2-11.1,0.6c-3.2,1-5.5,2.3-7.3,4.5c-1.8,2-2.8,4.8-3.2,8c-0.3,3.2,0.2,6.2,1.6,8.5
		c1.4,2.4,3.4,4.4,6.3,5.8C506.8,314.2,510.4,315,514.8,315.5z M526.4,397.8l-7.9,18.1l-42.8-18.5c-5.1-2.2-9-5.3-11.7-9.4
		c-2.7-4.1-4.1-8.6-4.2-13.8c-0.1-5.2,1-10.6,3.5-16.5c2.5-5.8,5.7-10.4,9.6-13.9c3.9-3.5,8.3-5.6,13-6.4c4.8-0.8,9.6-0.1,14.7,2.1
		l43,18.6l-7.9,18.1l-41.3-18c-2.1-0.9-4.1-1.2-6.2-1.1c-2,0.3-3.8,1-5.4,2.1c-1.6,1.3-2.9,2.8-3.8,4.9c-0.9,2.1-1.2,4.1-1.1,6.2
		c0.3,2,1,3.8,2.1,5.4c1.3,1.6,2.8,2.9,4.9,3.8L526.4,397.8z M467.6,480.1l-55.5-47.2l10.8-12.6l46.3,4.7l0.3-0.2L440.1,400
		l12.8-15.2l55.5,47.2l-10.9,12.8l-45.9-5l-0.4,0.4l29.1,24.8L467.6,480.1z M390.4,446.3l23.6-15l39.1,61.5l-23.5,15
		c-6.3,4-12.5,6.2-18.7,6.8c-6.2,0.6-12-0.8-17.3-3.8c-5.5-2.9-10.2-7.7-14.3-14.2c-4.1-6.5-6.3-12.7-6.7-18.9
		c-0.4-6.3,1-11.9,3.9-17.4C379.5,455,384.1,450.3,390.4,446.3z M406.4,456l-6.3,4c-3,1.9-5.3,4.1-6.9,6.5s-2.1,5-1.8,8.2
		c0.3,3.2,1.9,6.8,4.7,11.2c2.8,4.2,5.5,7.2,8.1,9c2.7,1.8,5.4,2.3,8.3,1.9c2.8-0.4,5.9-1.6,9-3.7l5.9-3.8L406.4,456z M348.4,468.2
		l20.5-5.7l-3.6,76.8l-26.1,7.2l-42.9-63.8l20.5-5.7l29.6,46.6l0.6-0.2L348.4,468.2z M359.9,494.8l-38.7,10.7l-4-14.3l38.7-10.7
		L359.9,494.8z M312.3,536.7l0.1,16l-63.4,0.5l-0.1-16l21.9-0.2l-0.5-57l19.6-0.2l0.5,57L312.3,536.7z M219,546.7l13.2-71.8
		l19.4,3.6l-13.2,71.8L219,546.7z M153.5,484.3c3.1-7.5,7.3-13.2,12.3-17.2c5-4,10.6-6.1,16.6-6.7c6.1-0.5,12.1,0.4,18.3,3
		c6.2,2.6,11,6.2,14.9,10.9c3.9,4.7,6.1,10.3,6.8,16.6c0.8,6.3-0.4,13.2-3.6,20.7c-3.1,7.5-7.3,13.2-12.3,17.2
		c-5,4-10.6,6.1-16.6,6.7c-6.1,0.5-12.1-0.4-18.3-3c-6-2.6-11-6.2-14.9-10.9c-3.9-4.7-6.2-10.2-7-16.6
		C149.2,498.8,150.4,491.8,153.5,484.3z M172.4,492.2c-1.7,4.1-2.6,7.7-2.6,10.8c-0.2,3.2,0.7,6,2,8.2s3.7,4.1,6.7,5.3
		c3,1.2,5.9,1.7,8.5,1c2.6-0.6,5.1-2,7.4-4.4c2.2-2.3,4.2-5.5,5.8-9.5c1.7-4,2.6-7.7,2.6-10.8c0.2-3.2-0.7-6-2-8.2
		c-1.3-2.2-3.7-4.1-6.7-5.3c-3-1.2-5.9-1.7-8.5-1s-5.1,2-7.4,4.4C176,484.9,174,488.1,172.4,492.2z M75.1,466l47.4-55.4l12.6,10.8
		l-5,46.2l0.2,0.3l24.9-29.1l15,12.8l-47.4,55.4L110,496l5.1-45.9l-0.4-0.4l-24.8,29L75.1,466z"/>
	<rect x="481.2" y="127.6" transform="matrix(0.4872 0.8733 -0.8733 0.4872 388.6906 -356.8832)" width="34" height="49.9"/>
	<polygon points="444.8,182.3 467.5,129.1 502,191 	"/>
	<rect x="37.6" y="376.5" transform="matrix(-0.4618 -0.887 0.887 -0.4618 -276.2666 635.3203)" width="34" height="49.9"/>
	<polygon points="108.9,373.2 84.7,425.8 52,362.9 	"/>
</g>
</svg>
