<?xml version="1.0" encoding="utf-8"?>
<!-- Generator: Adobe Illustrator 23.0.6, SVG Export Plug-In . SVG Version: 6.00 Build 0)  -->
<svg version="1.1" id="Layer_1" xmlns="http://www.w3.org/2000/svg" xmlns:xlink="http://www.w3.org/1999/xlink" x="0px" y="0px"
	 viewBox="0 0 858.4 163" style="enable-background:new 0 0 858.4 163;" xml:space="preserve">
<g>
	<path d="M0,0h140.9v39.1H52.3v22.5h75.8V99H52.3v24.9h90.2V163H0V0z"/>
	<path d="M277.1,163l-6.9-23h-57.1l-6.9,23h-53.5L212.2,0h60.9l59.5,163H277.1z M224.1,103.5h35.3l-17.1-58h-0.9L224.1,103.5z"/>
	<path d="M495.8,77c-5.4,8.1-13.2,14-23.4,17.8l36.2,68.2h-58.7l-28.9-59.5h-19.4V163h-52.3V0h99.7c11.7,0,21.7,2.3,30,6.8
		s14.5,10.6,18.7,18.2c4.2,7.7,6.3,16,6.3,25C503.8,59.9,501.1,68.9,495.8,77z M446.3,41.5c-2.8-2.8-6.3-4.3-10.4-4.3h-34.3v30.1
		h34.3c4.1,0,7.6-1.5,10.4-4.4c2.8-2.9,4.3-6.5,4.3-10.8S449.1,44.3,446.3,41.5z"/>
	<path d="M622,41.7V163h-52.3V41.7h-53.5V0h159.2v41.7H622z"/>
	<path d="M806.1,163v-61.8h-57.6V163h-52.3V0h52.3v59.5h57.6V0h52.3v163H806.1z"/>
</g>
</svg>
