<?xml version="1.0" encoding="utf-8"?>
<!-- Generator: Adobe Illustrator 23.0.6, SVG Export Plug-In . SVG Version: 6.00 Build 0)  -->
<svg version="1.1" id="Layer_1" xmlns="http://www.w3.org/2000/svg" xmlns:xlink="http://www.w3.org/1999/xlink" x="0px" y="0px"
	 viewBox="0 0 555.4 554.9" style="enable-background:new 0 0 555.4 554.9;" xml:space="preserve">
<style type="text/css">
	.st0{fill:#FFFFFF;}
</style>
<g>
	<path class="st0" d="M277.8,115.6c89.4,0,161.9,72.5,161.9,161.9c0,89.4-72.5,161.9-161.9,161.9s-161.9-72.5-161.9-161.9
		C115.9,188.1,188.4,115.6,277.8,115.6 M277.8,100.6c-23.9,0-47,4.7-68.8,13.9c-21.1,8.9-40,21.7-56.2,37.9
		c-16.2,16.2-29,35.1-37.9,56.2c-9.2,21.8-13.9,45-13.9,68.8s4.7,47,13.9,68.8c8.9,21.1,21.7,40,37.9,56.2
		c16.2,16.2,35.1,29,56.2,37.9c21.8,9.2,45,13.9,68.8,13.9s47-4.7,68.8-13.9c21.1-8.9,40-21.7,56.2-37.9s29-35.1,37.9-56.2
		c9.2-21.8,13.9-45,13.9-68.8s-4.7-47-13.9-68.8c-8.9-21.1-21.7-40-37.9-56.2c-16.2-16.2-35.1-29-56.2-37.9
		C324.8,105.3,301.7,100.6,277.8,100.6L277.8,100.6z"/>
</g>
<g>
	<path class="st0" d="M277.8,443.8c-90.9-0.2-166-73.4-166.2-166.1c-0.2-91,73-166.2,165.6-166.6c91.5-0.4,166.7,73.4,166.9,166.1
		C444.2,368.2,370.8,443.4,277.8,443.8z M220.6,197.7c0.2,1.8,0.4,3.3,0.6,4.7c0.6,3.8,0.5,7.7,2.8,11c0.2,0.3,0.1,0.7,0.1,1.1
		c0,4,0.1,7.9,0.1,11.9c0,1.4,0.6,2.3,2,2.3c1.6,0,1.7,1.1,1.9,2.2c0.2,1.3,0.1,2.6-1.4,3.3c-3.8,1.7-6.4,1.2-9.2-1.9
		c1.1-2.5,2.1-5,3.1-7.4c-0.2-0.1-0.4-0.2-0.5-0.4c-0.6,0.3-1.3,0.5-1.9,0.9c-2.1,1.3-4.3,2.3-6.9,1.4c-0.8-0.3-1.7-0.2-2.6-0.1
		c-0.6,0-1.1,0.4-1.6,0.6c0.2,0.5,0.4,1,0.8,1.4c2,2,4,4,6,5.9c1.2,1.2,1.2,3.3-0.2,3.8c-3.9,1.4-7.5,3.9-12,3.4
		c-0.7-0.1-1.5,0.3-2.3,0.5c-1.4,0.2-2.2,0.9-2.4,2.3c-0.4,2.2-1.6,3.7-3.8,4.4c-2.7,0.8-4.6,2.6-5.7,5.3c-2.1,5.2-5.6,9.4-10,12.8
		c-1,0.8-1.8,2-2.5,3.1c-1,1.4-0.9,2.7-0.2,4.3c0.9,1.9,1.6,4,2.1,6c0.2,0.8-0.4,1.8-0.7,2.6c-0.3,0-0.6,0.1-0.9,0.1
		c-1-1.6-2.1-3.2-2.8-5c-1-2.5-1.9-4.8-4.6-6.2c-2.5-1.3-5.4-0.9-6.6,1.7c-0.4,0.9-1,1-1.9,0.9c-1.7-0.3-3.4-0.5-5.1-0.6
		c-3.6-0.2-6.3,1.8-7.2,5.3c-0.1,0.4-0.2,0.8-0.4,1.2c-1.5,4.6-1.7,9.1,0.3,13.6c0.3,0.6,0.7,1.3,1.2,1.8c2,1.6,4.4,1.9,6.9,1.7
		c2.1-0.2,2.5-2,3.2-3.4c1.1-2.5,3.2-2.8,6.1-3.1c-0.9,2.6-1.5,5-2.5,7.1c-1.2,2.5-0.4,4.1,2.3,4.2c1.1,0,2.2,0.1,3.3,0
		c1.6-0.1,2.4,0.3,2.4,2.1c0,1.9,0.4,3.8,0.7,5.6c0.4,3.6,2.5,5,6,4.2c0.6-0.2,1.4-0.3,2-0.2c2.1,0.3,3.9-0.3,5.6-1.4
		c1.6-1.1,3.1-2.3,4.7-3.4c0.4-0.3,1.1-0.6,1.5-0.4c4.8,1.7,9.6,2.7,14.7,2.8c2.3,0.1,4.1,0.8,5.6,2.6c1.2,1.4,2.5,2.8,3.9,3.8
		c1.3,1,2.9,2.2,4.5,2.2c3.6,0.1,5.6,2.3,7.8,4.5c1.6,1.5,3.3,3,5.2,4c5,2.6,10.1,4.9,15.1,7.5c2.4,1.2,4.6,2.7,6.8,4.3
		c1.3,1,1.9,2.4,1.5,4.2c-0.8,3.9-1.7,7.7-2.3,11.6c-0.7,4.5-1.1,9-1.7,13.4c-0.1,0.7-0.5,1.4-0.9,1.9c-2.1,2.1-4.4,4.1-6.4,6.3
		c-0.9,0.9-1.5,2.2-1.8,3.5c-0.7,2.9-1.6,5.8-1.7,8.8c-0.1,2.5-1.1,3.8-3.2,4.7c-1,0.4-1.1,1-0.7,2c0.4,1.2,0.9,2.6,0.6,3.9
		c-0.9,4.5-2,9-3.1,13.5c-0.2,0.7-0.4,1.3-0.5,1.9c-0.4,1.5,0,2.8,1.5,3.5c1.2,0.6,1.8,1.5,1.9,2.9c0.1,1.6,0.5,3.1,1.1,4.6
		c0.2,0.7,1,1.5,1.6,1.6c4.1,1,8.2,1.9,12.4,2.6c15,2.5,30,2.8,45.1,0.9c13-1.6,25.6-4.7,37.7-9.6c24.4-9.7,45.1-24.5,62.1-44.5
		c13.3-15.6,23.1-33.2,29.4-52.8c3.4-10.5,5.6-21.2,6.9-32.2c0.3-2.7-0.3-5.1-1.9-7.2c-2.9-3.8-6.4-6.9-10.5-9.3
		c-0.9-0.5-1.8-1.1-2.8-1.3c-3.7-0.8-7.4-1.7-11.2-2c-5.7-0.6-11.3-1.3-16.2-4.5c-0.3-0.2-0.8-0.1-1.4-0.2c0.6,2.7,2,4.5,4.1,5.6
		c4.5,2.2,9.1,4.3,13.8,6.3c2.4,1.1,2.8,1.8,1.7,4.3c-1.4,3.4-3.9,5.9-6.9,7.9c-5.6,3.8-11.7,6.5-18.1,8.7c-1.9,0.6-2.3,1.7-1.2,3.3
		c0.7,1.1,1.6,1.5,2.9,1.1c2.7-0.9,5.4-1.7,8.1-2.4c0.6-0.1,1.8,0.2,1.8,0.4c0.1,1.4,0.4,3.1-0.2,4.1c-2.7,4.4-5.7,8.6-8.6,13
		c-3,4.5-6.1,8.9-8.8,13.5c-1.9,3.1-3,6.4-1.8,10.3c0.9,3.1,0.1,6.1-1.9,8.8c-2.2,2.9-4.1,6-6,9c-0.5,0.7-0.8,1.5-1.1,2.3
		c-0.5,1.4-0.7,3-1.4,4.3c-2.9,4.7-6,9.3-9.2,13.9c-0.6,0.9-1.5,1.6-2.5,2.1c-2.5,1.3-5,2.6-7.6,3.7c-1.2,0.5-2.7,0.5-4.1,0.5
		c-1.3,0.1-1.9-0.7-2.3-1.9c-2.1-6.6-3.9-13.4-6.4-19.8c-2.3-5.7-3.1-11.3-1.3-17.2c1-3.3,0.5-6.5-0.9-9.6c-1.1-2.3-2-4.7-3.2-7
		c-1.6-3.2-2.9-6.3-1.3-9.9c0.1-0.2,0.1-0.5,0.1-0.7c0.3-2.4-0.6-3.5-3-3.9c-1.4-0.2-2.8-0.5-4.1-0.9c-2.8-0.9-5.4-1.4-8.5-0.6
		c-4.1,1-8.3,1.1-12.5,1.4c-0.9,0.1-2.1-0.5-2.9-1.1c-3.5-3.2-6.8-6.5-10.2-9.8c-2-2-3.4-4.5-3.5-7.5c-0.1-2.9,0.1-5.8-0.3-8.6
		c-0.5-3.5,0.5-6.4,2-9.4c1.9-3.7,4.1-6.9,7.9-8.9c0.4-0.2,0.9-0.8,0.9-1.2c0-2.7,1.4-4.6,3-6.5c0.9-1.1,1.9-2.3,2.6-3.5
		c1.4-2.3,1.2-3-1-4.7c-0.6-0.4-1.2-0.9-1.7-1.4c-1.9-1.7-2.6-3.7-1.5-6.1c0.9-2,1.9-4,2.8-5.9c0.7-1.4,1.7-2.1,3.4-2
		c1.3,0.1,2.7-0.1,4-0.4c1.6-0.3,2-1.1,1.3-2.6c-1.2-2.4-2.3-4.8-3.5-7.4c0.5-0.2,1-0.4,1.4-0.7c2.7-1.4,5.3-2.7,7.9-4.2
		c0.5-0.3,0.6-1.4,0.8-2.1c-0.6-0.2-1.3-0.7-1.9-0.7c-2.9,0.2-5.3,1.7-7.6,3.3c-0.5,0.4-1.1,0.7-1.8,1.1c-0.1-0.5-0.2-0.8-0.1-1
		c0.4-3.4,0.3-6.8,2.4-9.8c0.6-0.9,1.3-2.1-0.3-2.9c-3.7-1.9-3.7-6.1-0.3-8.9c0.3,0.2,0.7,0.4,1,0.8c0.8,1.1,2.3,1.7,2.2,3.6
		c0,1.4,0.3,2.9,1,4.1c1,1.8,2.3,3.4,3.4,5.2c0.4,0.6,0.6,1.5,0.6,2.2c0,1.3,0.5,1.8,1.6,1.1c2.3-1.6,4.5-3.4,6.9-5.1
		c1-0.7,2.1-1.3,3.2-1.5c4.4-0.7,8.8-1.3,13.2-1.9c1.7-0.2,2.7-1.1,3.1-2.6c0.3-0.9,0.4-1.9,0.4-2.9c0.2-2.6,2.9-6.5,5.3-7.4
		c1.4-0.5,1.7-1.5,0.6-2.4c-0.8-0.7-1.9-1.1-2.9-1.2c-4.1-0.6-5.5-2.7-4.4-6.6c0.6-2.1,1.2-4.2,1.7-6.4c0.1-0.4-0.2-1-0.3-1.5
		c-0.5,0.2-1.1,0.2-1.4,0.5c-0.5,0.4-1.1,0.9-1.4,1.4c-1.1,2.3-2.1,4.7-3,7c-1.1,2.8-1.5,5.6,0.5,8.3c0.5,0.6,0.6,1.9,0.3,2.7
		c-1,2.4-2.1,4.7-3.5,6.8c-0.6,0.9-2.3,1.2-3.5,1.4c-0.4,0.1-1.1-0.9-1.4-1.5c-0.8-1.3-1.5-2.7-2.4-3.9c-0.8-1.2-1.8-1.7-3.2-0.6
		c-1,0.8-2,0.7-2.7-0.3c-1.8-2.8-2.9-5.8-1.9-9.2c0.3-1.1,0.8-1.7,2-2.1c2.6-0.9,4.9-2.3,5.9-5.1c0.8-2.2,1.5-4.5,2.2-6.8
		c1.1-3.5,1.6-7.1,4.5-10c3.6-3.6,7.6-5.7,12.7-5.5c1.1,0,1.8,0.3,2.5,1.3c0.8,1.2,2.2,2.1,3.5,2.7c3,1.5,6.3,2.5,9,4.3
		c1.7,1.2,2.9,1.7,4.7,0.9c0.8-0.4,1.6-0.6,2.3-1c4.4-2.7,8.7-5.4,13.1-8.1c0.3-0.2,0.5-0.6,0.9-1.2c-3.4-0.5-6.5-1-9.5-1.4
		s-3.1-0.5-3.4-3.7c-0.4-3.9-0.7-7.8-1.2-11.7c-0.1-0.8-0.7-1.9-1.4-2.3c-7.2-4.1-14.4-8.4-21.8-11.9c-13.3-6.3-27.4-10-41.9-12.1
		c-1-0.2-2.1-0.4-3.1-0.2c-0.8,0.2-1.5,1-2.3,1.6c0.5,0.5,1,1.1,1.6,1.4c1.6,0.8,3.3,1.4,5.2,2.3c-2.4,3.1-4.6,5.8-6.8,8.6
		c-0.5,0.7-1,1.4-1.2,2.2c-1,4-2.1,7.9-2.7,12c-0.6,4.2-2,7.9-5.2,10.7c-0.5,0.5-1.1,1-1.4,1.7c-0.2,0.5-0.4,1.4-0.1,1.9
		c2.4,3.9,2.3,5.1-0.8,8.4c-2.6,2.8-5.3,5.4-9.2,6.3c-1.9,0.5-3.8,1.2-5.6,2c-2.5,1.1-5,2.4-7.3,3.8c-1.6,1-3.1,2.2-4.1,3.7
		c-2.3,3.3-4.3,6.8-6.3,10.3c-1,1.7-1.8,2-3.3,0.7c-1.1-0.9-2-2.2-2.5-3.5c-2.1-4.7-1.7-9.7-1.1-14.6c0.4-3.2,1.5-6.1,4.2-8.2
		c0.5-0.4,1-0.9,1.2-1.4s0.3-1.4,0-1.7c-1.3-1.5-1.4-3.1-0.8-4.8c0.5-1.6,1.3-3.1,2-4.7c2.5-5.8,2.1-8-2.6-12.3
		c-0.6-0.5-1.2-1.1-1.8-1.6c-1.8-1.5-2.5-4.5-1.5-6.6c0.8-1.8,1.8-3.5,2.6-5.3c0.7-1.6,1.8-2.4,3.5-2.6c3.5-0.4,6.6-1.3,7.4-5.4
		c0.1-0.3,0.4-0.6,0.5-1s0-0.9,0-1.6c-0.7,0.3-1.2,0.5-1.6,0.7c-2.1,1-4.3,2.1-6.4,3.1c-1.4,0.7-2.8,1.2-4,2
		c-3.9,2.8-6.4,6.7-8.9,10.6c-0.9,1.5-2.1,2.1-3.7,2.2c-1.8,0.1-3.3-0.5-4.4-2.1c-1-1.4-1-2.9-0.1-4.3c0.4-0.6,1.2-1,1.4-1.6
		c0.4-1,0.9-2.1,0.7-3.2c-0.2-1.4-1.5-0.9-2.4-0.8c-2.4,0.3-4.7,0.6-7.1,1c-1.4,0.2-2.8,0.6-4.6,1.1c0.9,0.8,1.4,1.3,2,1.6
		c1.3,0.8,1.7,1.8,0.9,3.2c-0.4,0.7-0.5,1.5-0.8,2.2c-0.5,1.2-1.2,2.3-2,3.9c-1.2-2.5-2-4.5-3-6.3c-0.3-0.5-1.3-1.1-1.8-1
		c-3,0.9-6.1,1.9-9,3.1c-1.4,0.5-2.2,1.8-1.1,3.3c0.8,1.1,0.5,2-0.1,3c-2.3,3.5-4.7,7-6.8,10.7c-1.8,3.1-4.4,4.9-7.6,6.2
		c-0.9,0.4-2.2,1.8-2.1,2.5c0.3,1.7,1.8,2.6,3.5,3.2c1.4,0.4,2.4-0.1,3.4-1c2.2-2.2,4.7-4.1,6.8-6.3c1-1,1.7-2.3,2.3-3.6
		c0.5-1.1,0.6-2.5,1.2-3.4c2-2.8,4.2-5.4,6.4-8.1c0.3-0.3,1-0.7,1.3-0.6c2.3,0.5,4.6,1.2,7.5,1.9c-1.9,1.2-3.3,2-4.7,2.9
		c-0.7,0.5-1.6,0.9-2.1,1.7c-2.9,4.8-6.2,9.4-5.8,15.5c0,0.4-0.2,0.8-0.2,1.3s0,1,0,1.5c0.5-0.2,1.3-0.2,1.6-0.5
		c1.4-1.4,2.7-3,4.1-4.4c1-1,1.5-2.1,1.2-3.6c-0.3-1.8-0.3-3.7-0.3-5.5c0-0.5,0-1.1,0.3-1.4c2.4-2,4.7-4.1,7.3-5.7
		c2.4-1.5,4.5,0.6,6.8,1.1c1.9,0.4,2.5,1.8,2.4,3.6c0,0.7-0.1,1.5-0.3,2.2c-0.8,2.2-0.3,3.9,1.4,5.4c0.5,0.4,0.9,0.9,1.3,1.3
		c1.5,1.4,1.8,5.9,0.2,7.2c-1.3,1-1.3,2-0.8,3.3c0.4,1.1,0.7,2.2,1.1,3.3c0.6,1.4,0.9,2.6-0.4,3.8c-1.4,1.4-2.6,2.8-4.8,1.5
		c-0.3-0.2-0.9-0.1-1.6-0.2c0.3,1.3,0.6,2.4,0.9,3.4c0.7,2.8-0.5,5.5-3.2,6.7c-1.2,0.5-2.2,0.6-3-0.7c-0.9-1.3-2-2.5-3-3.7
		c-1.3-1.6-1.5-3.4-0.8-5.2c0.6-1.4,1.5-2.8,2.3-4.1c1-1.7,2.1-3.3,3.1-4.9c1.7-2.7-0.8-5-0.9-7.5c0-0.1-0.5-0.3-0.8-0.4
		c-0.8-0.2-1.5-0.4-2.3-0.7c-1.1-0.4-1.8-0.1-2.2,0.9c-1.3,3-2.8,5.9-4,9c-1.5,4.1-1.4,4.2-5.7,4.4c-1.3,0.1-1.5,0.6-1.2,1.6
		c0.3,1.1,0.7,2.2,1.2,3.3c0.5,1.3,0.7,2.2-1.1,2.5c-1.2,0.2-2.3,0.7-3.5,0.9c-0.6,0.1-1.4-0.1-2.1-0.2c1.1-3.1,2-5.9,3-8.7
		c-0.8,0-1.3,0.2-1.6,0.5c-3.3,2.3-6.3,5.1-10.4,5.9c-0.6,0.1-1.1,0.5-1.6,0.9c-3.8,3.3-5.4,7.7-5.2,12.6c0.2,4.3,2.5,7.9,5.1,11.4
		c1.1,1.4,1.8,3.1,2.6,4.7c0.5,1,1,2,1.7,3.5c0.5-1.2,0.9-1.8,1-2.5c0.3-1.8,1.1-3.1,2.6-4.2c1.6-1.1,3.1-2.4,4.6-3.7
		s1.7-2.7,0.4-4.1c-0.8-0.8-0.8-1.4-0.1-2.1c2.3-2.2,3.5-4.9,4.1-8c0.1-0.7,0.4-1.4,0.6-2.1c0.5-1.5,1.6-1.9,2.8-1.1
		c2.3,1.6,4.6,3.2,6.8,5c0.3,0.2,0.3,1.2,0.1,1.7c-0.6,1.4-1.4,2.7-2,4.1c-0.2,0.4,0,1.3,0.4,1.6s1.2,0.2,1.7-0.1
		c0.7-0.3,1.3-0.9,1.9-1.4C217.7,200.4,219,199.2,220.6,197.7z M122.3,284.7c-0.2,0.1-0.3,0.2-0.5,0.3
		c2.6,41.1,18.3,76.2,47.9,104.9c16.6,16.1,36,27.9,58.1,35c-0.3-1.2-0.8-2.2-1.4-3c-1.2-1.4-2-2.9-2.1-4.7c-0.1-1.6-0.8-2.8-2-3.9
		c-1.5-1.4-2.5-3.2-2.9-5.4c-0.4-1.8-1.5-3.4-2.2-5.1c-0.6-1.5-1.2-3-1.6-4.6c-0.4-1.7,0.1-3.8-0.6-5.2c-3.4-6.3-5.4-13.1-7.2-19.9
		c-1.4-5.3-4-9.5-9-12c-1.6-0.8-3.1-1.8-4.4-3c-2.5-2.2-4.9-4.5-7.2-6.9c-1.5-1.6-2.7-3.5-4.2-5s-2.8-3-2.7-5.3
		c0.1-1.6,0-3.2-0.4-4.7c-0.8-3.1,0.3-5.4,2.1-7.7c3-3.9,1.3-8.1-1.3-10.7c-1.8-1.8-2.3-1.7-3.1,0.7c-0.2,0-0.4,0-0.5,0
		c-0.4-0.1-0.8-0.3-1.2-0.5c-4.7-1.9-8.4-5.1-11.7-8.9c-0.8-0.9-1.9-1.8-3-2.2c-3.5-1.3-7.1-2.2-10.6-3.4c-4.9-1.6-10-2.8-14.4-5.8
		c-1.4-0.9-2.1-2-2.9-3.5c-3.1-6.3-6.4-12.4-9.7-18.6c-0.3-0.5-0.7-0.9-1.3-1.6c-0.8,5.4,3.2,9.2,3.5,13.8c-0.1,0.1-0.3,0.2-0.4,0.3
		C124.1,286.8,123.2,285.8,122.3,284.7z M301.4,258.8c0.1,0.2,0.1,0.5,0.2,0.7c1.3-0.4,2.6-0.6,3.8-1.1c6.4-2.9,13-4.4,20.1-3.1
		c1.3,0.2,1.8,0.6,1.8,1.9c0,1.5,0.1,2.9,0.3,4.4c0.1,0.7,0.7,1.6,1.3,1.9c3.4,1.6,6.8,3,10.2,4.5c0.4,0.1,0.8,0.1,1.3,0.2
		c-0.1-0.7-0.2-1.1-0.3-1.6c-0.4-2.7,0.5-4.6,3.7-3.6c4.5,1.4,9.1,2.6,14,2.2c3.4-0.3,5.6-1.8,7-4.7c0.4-0.9,0.8-1.8,1-2.7
		c0.2-0.9,0-1.9,0-2.8c-0.8,0.1-1.8-0.1-2.4,0.4c-2.2,1.5-3.9,0.7-5.8-0.6c-3.6-2.3-7.2-4.6-10.8-6.8c-0.8-0.5-1.9-1.1-2.3,0.1
		c-0.2,0.6,0.4,1.7,0.9,2.4c0.3,0.4,1.2,0.5,1.6,0.9c0.5,0.6,1,1.4,1,2.1c0,0.6-0.8,1.7-1.1,1.7c-1.6-0.1-3.4,1-4.7-0.8
		c-1.2-1.6-2.4-3.2-3.8-4.7c-0.5-0.5-2-1.3-2.1,0.2c0,2.5-1.7,3.8-2.8,5.6c-0.9,1.5-3,1.5-4.2,0.2s-1-2.4,0.7-3.1
		c2.2-1,2.6-3.6,0.6-5c-4.5-3.3-9.6-4.4-15.1-3.2c-0.5,0.1-1.1,0.5-1.5,1c-1.6,2.1-3.3,4.1-4.5,6.4c-1.7,3.1-3.8,5.7-7.3,6.6
		C301.9,258.4,301.7,258.6,301.4,258.8z M380.5,296.8c0.1,0,0.2-0.1,0.3-0.1c-0.4-1.3-0.6-2.6-1.2-3.7c-2.4-4.4-4.9-8.7-7.4-13
		c-1.1-2-2-4.2-3.3-6.1c-0.6-0.9-2.2-2.3-2.8-2c-1.5,0.6-1.4,2.4-0.9,3.7c0.9,2.2,2.2,4.2,3.4,6.2c0.6,1.1,1.6,2,2.1,3.2
		c1.1,2.5,1.6,5.3,2.9,7.7c1.3,2.3,3.1,4.3,5,6.2c1.1,1.2,1.9,0.7,1.9-1C380.5,297.4,380.5,297.1,380.5,296.8z"/>
	<path class="st0" d="M391.1,348.2c-0.7,2.9-1.1,6-2.1,8.8c-1.3,3.9-3.1,7.7-4.6,11.5c-0.6,1.5-1.6,2.8-3.2,2.5
		c-1.2-0.3-2.3-1.4-3.1-2.4c-0.9-1.1-0.2-2.3,0.5-3.5c1.2-2.2,2-4.7,3.1-7c0.3-0.5,0.9-0.9,1.5-1.3c0.5-0.4,1.1-0.7,1.5-1.1
		c2-2.5,3.9-5.1,5.8-7.7C390.7,348.1,390.9,348.1,391.1,348.2z"/>
	<path class="st0" d="M168.4,289.5c1.3-1.7,5.2-2.5,7.3-1.5c3,1.4,6,2.7,8.9,4.2c0.5,0.3,0.9,1,1.2,1.6c-3,0.4-5.8,1-8-1.7
		c-2.1-2.6-5.1-3.2-8.3-2.6c-0.2,0-0.5,0.1-0.7,0.1C168.6,289.6,168.5,289.6,168.4,289.5z"/>
	<path class="st0" d="M185.1,297.3c0.8-2.3,2.9-3.2,6.6-2.8c2.2,0.2,3.2,0.9,3.6,2.9C191.8,296.9,188.5,299.5,185.1,297.3z"/>
	<path class="st0" d="M202.7,298.2c-1.4-0.2-2.6-0.3-3.8-0.5c-0.2,0-0.6-0.5-0.6-0.8s0.2-0.7,0.5-0.9
		C200.4,295.1,202.1,295.8,202.7,298.2z"/>
</g>
</svg>
