<?xml version="1.0" encoding="utf-8"?>
<!-- Generator: Adobe Illustrator 23.0.6, SVG Export Plug-In . SVG Version: 6.00 Build 0)  -->
<svg version="1.1" id="Layer_1" xmlns="http://www.w3.org/2000/svg" xmlns:xlink="http://www.w3.org/1999/xlink" x="0px" y="0px"
	 viewBox="0 0 555.4 554.9" style="enable-background:new 0 0 555.4 554.9;" xml:space="preserve">
<style type="text/css">
	.st0{fill:#FFFFFF;}
</style>
<g>
	<path class="st0" d="M83.6,341l-71.5,14.3l-10-50.2l15.6-3.2l6.2,30.8l12.3-2.4l-5.5-27.8l15.6-3.2l5.5,27.8l27.9-5.6L83.6,341z
		 M42.3,221.7c8,0.7,14.7,2.9,20.1,6.4c5.2,3.7,9.1,8.3,11.5,13.8c2.4,5.6,3.3,11.6,2.8,18.3c-0.5,6.6-2.5,12.5-5.9,17.6
		s-7.9,9-13.7,11.7c-5.9,2.7-12.7,3.7-20.8,3c-8-0.7-14.7-2.9-20.1-6.4c-5.2-3.7-9.1-8.2-11.5-13.8S1.3,260.6,1.8,254
		s2.5-12.5,5.8-17.5c3.4-5.1,7.9-9,13.7-11.7C27.2,222.1,34.1,221.1,42.3,221.7z M40.5,242.1c-4.4-0.3-8.1,0-11.1,0.8
		c-3,0.9-5.5,2.4-7.3,4.5c-1.8,2.1-2.7,4.7-3.1,8c-0.2,3.2,0.2,6,1.6,8.4c1.3,2.4,3.5,4.3,6.4,5.6s6.6,2.2,10.9,2.7
		c4.4,0.3,8.1,0,11.1-0.8c3-0.9,5.5-2.4,7.3-4.5s2.7-4.7,3.1-8c0.2-3.2-0.2-6-1.6-8.4c-1.3-2.4-3.5-4.3-6.4-5.6
		C48.5,243.3,44.9,242.4,40.5,242.1z M28,159.9l7.7-18.2l43.1,18.1c5.1,2.2,9.1,5.2,11.8,9.2c2.7,4,4.1,8.7,4.4,13.7
		c0.1,5.3-1,10.8-3.3,16.4c-2.5,5.8-5.5,10.5-9.5,14s-8.2,5.6-12.8,6.5c-4.7,0.8-9.7,0.2-14.7-1.9l-43.3-18l7.7-18.2L60.5,199
		c2.1,0.9,4.1,1.3,6.2,1s3.8-1,5.4-2.2s2.8-2.9,3.8-4.9c0.9-2.1,1.2-4.2,1-6.2c-0.2-2.1-1-3.8-2.2-5.4c-1.2-1.6-2.9-2.8-4.9-3.8
		L28,159.9z M85.9,77l56,46.6l-10.6,12.7L85,132.1l-0.2,0.2l29.4,24.6l-12.7,15.3l-56.1-46.8l10.8-13l45.9,4.5l0.3-0.4L73.2,92.2
		L85.9,77z M163.6,110L140,125.3l-39.8-61.1l23.3-15.1c6.2-4.1,12.5-6.4,18.7-6.9c6.1-0.4,12,0.7,17.5,3.6s10.2,7.6,14.4,14
		s6.5,12.7,6.9,18.8s-0.7,12-3.7,17.3C174.4,101.2,169.7,106,163.6,110z M147.4,100.3l6.4-4.2c3-2,5.2-4.1,6.7-6.4s2-5.2,1.7-8.2
		c-0.4-3.2-2-6.8-4.8-11.1c-2.8-4.2-5.5-7.2-8.1-8.8c-2.7-1.7-5.4-2.3-8.2-1.8s-5.9,1.7-9,3.7l-5.8,3.8L147.4,100.3z M205.4,87.6
		l-20.5,6l2.7-76.8l26.1-7.6l43.5,63.3l-20.5,6l-30.1-46.4l-0.6,0.2L205.4,87.6z M193.6,61l38.6-11.2l4.2,14.1l-38.6,11.2L193.6,61z
		 M240.6,18.8l-0.3-16l63.4-1.1l0.3,16l-22,0.2l1.1,57.1l-19.6,0.4l-1.1-56.9L240.6,18.8z M333.9,7.7l-12.5,71.9l-19.5-3.3
		l12.5-71.9L333.9,7.7z M399.9,69.5c-3.1,7.5-7.1,13.2-12.2,17.2S377.1,93,371,93.6s-12.2-0.3-18.2-2.7c-6.2-2.5-11.2-6.1-15.1-10.7
		s-6.1-10.2-7-16.5c-0.8-6.3,0.3-13.2,3.4-20.7s7.1-13.2,12.2-17.2c4.9-4,10.6-6.3,16.5-7c6.1-0.6,12.2,0.3,18.4,2.8
		c6.2,2.5,11.2,6.1,15,10.8c3.9,4.6,6.3,10.1,7.1,16.5C404.1,55.1,403,62,399.9,69.5z M381.1,61.8c1.6-4,2.5-7.7,2.6-10.8
		c0.1-3.2-0.7-5.9-2.1-8.2c-1.5-2.3-3.7-4-6.8-5.3c-3.1-1.3-5.9-1.6-8.6-0.9c-2.6,0.6-5.1,2.1-7.3,4.5c-2.2,2.4-4.1,5.5-5.8,9.6
		c-1.6,4-2.5,7.7-2.6,10.8c-0.1,3.2,0.7,5.9,2.1,8.2c1.5,2.3,3.7,4,6.8,5.3c3.1,1.3,5.9,1.6,8.6,0.9c2.6-0.6,5.1-2.1,7.3-4.5
		C377.6,69.2,379.5,65.9,381.1,61.8z M478.6,87l-47,55.8L419,132.2l4.4-46.2l-0.2-0.2L398.6,115l-15.1-12.7l47-55.8l12.8,10.9
		l-4.7,46l0.4,0.3l24.4-29.4L478.6,87z M472.8,216.1l71.7-13.7l9.5,50.3l-15.7,2.9l-5.9-31L520,227l5.3,27.9l-15.7,2.9l-5.3-27.9
		l-28,5.4L472.8,216.1z M512.9,335.7c-8.1-0.8-14.8-3-20-6.7s-9.1-8.4-11.4-13.9c-2.4-5.7-3.2-11.6-2.6-18.2s2.6-12.4,6-17.5
		s8-8.8,13.9-11.6c5.8-2.6,12.8-3.6,20.8-2.7c8.1,0.8,14.8,3,20,6.7s9,8.2,11.4,13.9s3.2,11.6,2.6,18.4c-0.6,6.6-2.6,12.4-6,17.5
		s-7.9,8.9-13.9,11.6C527.9,335.6,520.8,336.6,512.9,335.7z M514.8,315.5c4.4,0.5,8.1,0.2,11.1-0.6c3.2-1,5.5-2.3,7.4-4.4
		c1.8-2,2.8-4.8,3.2-8c0.3-3.2-0.2-6.2-1.6-8.5c-1.4-2.4-3.4-4.4-6.3-5.8c-2.9-1.4-6.4-2.3-10.8-2.8s-8.1-0.2-11.1,0.6
		c-3.2,1-5.5,2.3-7.3,4.5c-1.8,2-2.8,4.8-3.2,8c-0.3,3.2,0.2,6.2,1.6,8.5c1.4,2.4,3.4,4.4,6.3,5.8
		C506.8,314.2,510.4,315,514.8,315.5z M526.4,397.8l-7.9,18.1l-42.8-18.5c-5.1-2.2-9-5.3-11.7-9.4s-4.1-8.6-4.2-13.8
		c-0.1-5.2,1-10.6,3.5-16.5c2.5-5.8,5.7-10.4,9.6-13.9s8.3-5.6,13-6.4c4.8-0.8,9.6-0.1,14.7,2.1l43,18.6l-7.9,18.1l-41.3-18
		c-2.1-0.9-4.1-1.2-6.2-1.1c-2,0.3-3.8,1-5.4,2.1c-1.6,1.3-2.9,2.8-3.8,4.9s-1.2,4.1-1.1,6.2c0.3,2,1,3.8,2.1,5.4
		c1.3,1.6,2.8,2.9,4.9,3.8L526.4,397.8z M467.6,480.1l-55.5-47.2l10.8-12.6l46.3,4.7l0.3-0.2L440.1,400l12.8-15.2l55.5,47.2
		l-10.9,12.8l-45.9-5l-0.4,0.4l29.1,24.8L467.6,480.1z M390.4,446.3l23.6-15l39.1,61.5l-23.5,15c-6.3,4-12.5,6.2-18.7,6.8
		s-12-0.8-17.3-3.8c-5.5-2.9-10.2-7.7-14.3-14.2c-4.1-6.5-6.3-12.7-6.7-18.9c-0.4-6.3,1-11.9,3.9-17.4
		C379.5,455,384.1,450.3,390.4,446.3z M406.4,456l-6.3,4c-3,1.9-5.3,4.1-6.9,6.5s-2.1,5-1.8,8.2c0.3,3.2,1.9,6.8,4.7,11.2
		c2.8,4.2,5.5,7.2,8.1,9c2.7,1.8,5.4,2.3,8.3,1.9c2.8-0.4,5.9-1.6,9-3.7l5.9-3.8L406.4,456z M348.4,468.2l20.5-5.7l-3.6,76.8
		l-26.1,7.2l-42.9-63.8l20.5-5.7l29.6,46.6l0.6-0.2L348.4,468.2z M359.9,494.8l-38.7,10.7l-4-14.3l38.7-10.7L359.9,494.8z
		 M312.3,536.7l0.1,16l-63.4,0.5l-0.1-16l21.9-0.2l-0.5-57l19.6-0.2l0.5,57L312.3,536.7z M219,546.7l13.2-71.8l19.4,3.6l-13.2,71.8
		L219,546.7z M153.5,484.3c3.1-7.5,7.3-13.2,12.3-17.2s10.6-6.1,16.6-6.7c6.1-0.5,12.1,0.4,18.3,3s11,6.2,14.9,10.9
		c3.9,4.7,6.1,10.3,6.8,16.6c0.8,6.3-0.4,13.2-3.6,20.7c-3.1,7.5-7.3,13.2-12.3,17.2s-10.6,6.1-16.6,6.7c-6.1,0.5-12.1-0.4-18.3-3
		c-6-2.6-11-6.2-14.9-10.9s-6.2-10.2-7-16.6C149.2,498.8,150.4,491.8,153.5,484.3z M172.4,492.2c-1.7,4.1-2.6,7.7-2.6,10.8
		c-0.2,3.2,0.7,6,2,8.2s3.7,4.1,6.7,5.3s5.9,1.7,8.5,1c2.6-0.6,5.1-2,7.4-4.4c2.2-2.3,4.2-5.5,5.8-9.5c1.7-4,2.6-7.7,2.6-10.8
		c0.2-3.2-0.7-6-2-8.2s-3.7-4.1-6.7-5.3c-3-1.2-5.9-1.7-8.5-1s-5.1,2-7.4,4.4C176,484.9,174,488.1,172.4,492.2z M75.1,466l47.4-55.4
		l12.6,10.8l-5,46.2l0.2,0.3l24.9-29.1l15,12.8L122.8,507L110,496l5.1-45.9l-0.4-0.4l-24.8,29L75.1,466z"/>
	
		<rect x="473.2" y="135.5" transform="matrix(0.8733 -0.4872 0.4872 0.8733 -11.1812 262.042)" class="st0" width="49.9" height="34"/>
	<polygon class="st0" points="444.8,182.3 467.5,129.1 502,191 	"/>
	
		<rect x="29.7" y="384.5" transform="matrix(0.887 -0.4618 0.4618 0.887 -179.2392 70.5909)" class="st0" width="49.9" height="34"/>
	<polygon class="st0" points="108.9,373.2 84.7,425.8 52,362.9 	"/>
</g>
</svg>
