<svg id="Layer_1" data-name="Layer 1" xmlns="http://www.w3.org/2000/svg" width="2121.1025" height="169.0632" viewBox="0 0 2121.1025 169.0632"><title>HEREONEARTH</title><path d="M1262.7026,3.0316h140.9v39.1h-88.6v22.5h75.8v37.4h-75.8v24.9h90.2v39.1h-142.5Z"/><path d="M1539.8026,166.0316l-6.9-23h-57.1l-6.9,23h-53.5l59.5-163h60.9l59.5,163Zm-53-59.5h35.3l-17.1-58h-.9Z"/><path d="M1758.5026,80.0316c-5.4,8.1-13.2,14-23.4,17.8l36.2,68.2h-58.7l-28.9-59.5h-19.4v59.5h-52.3v-163h99.7c11.7,0,21.7,2.3,30,6.8a45.602,45.602,0,0,1,18.7,18.2,51.287,51.287,0,0,1,6.3,25A50.1346,50.1346,0,0,1,1758.5026,80.0316Zm-49.5-35.5a14.2651,14.2651,0,0,0-10.4-4.3h-34.3v30.1h34.3a13.9736,13.9736,0,0,0,10.4-4.4,15.0217,15.0217,0,0,0,4.3-10.8A14.3952,14.3952,0,0,0,1709.0026,44.5316Z"/><path d="M1884.7026,44.7316v121.3h-52.3v-121.3h-53.5v-41.7h159.2v41.7Z"/><path d="M2068.8025,166.0316v-61.8h-57.6v61.8h-52.3v-163h52.3v59.5h57.6v-59.5h52.3v163Z"/><path d="M109.9862,166.031V104.164h-57.6v61.867H0V2.9485H52.3858V62.4452h57.6V2.9485h52.3855V166.031Z"/><path d="M197.4512,2.9485H338.49V42.06H249.8371V64.5783h75.8523V102.031H249.8371V126.92h90.3116V166.031H197.4512Z"/><path d="M515.3173,79.986q-8.0615,12.0894-23.4668,17.7779l36.2666,68.2671H469.3315L440.413,106.5343H420.9759V166.031H368.59V2.9485h99.7936q17.5386,0,29.9851,6.7555A45.3824,45.3824,0,0,1,517.095,27.9559a51.3522,51.3522,0,0,1,6.2815,25.0078A47.6618,47.6618,0,0,1,515.3173,79.986ZM465.7761,44.43a14.1887,14.1887,0,0,0-10.43-4.2666h-34.37V70.2672h34.37a13.9879,13.9879,0,0,0,10.43-4.3852,14.87,14.87,0,0,0,4.2666-10.7852A14.4733,14.4733,0,0,0,465.7761,44.43Z"/><path d="M553.0058,2.9485H694.0442V42.06H605.3917V64.5783H681.244V102.031H605.3917V126.92h90.3116V166.031H553.0058Z"/><path d="M949.33,21.6744q22.989,21.5723,22.9929,62.8149,0,41.2458-22.9929,62.8158-22.9948,21.5715-65.1861,21.5706-42.1952,0-65.0666-21.452-22.878-21.45-22.8743-62.9344,0-41.4777,22.8743-62.9335Q841.95.106,884.1442.1038,926.3335.1038,949.33,21.6744ZM858.5438,49.4078q-8.7718,10.1944-8.77,27.4963v15.17q0,17.3059,8.77,27.4972,8.7675,10.1937,25.6,10.1927,16.8276,0,25.719-10.1927,8.8884-10.1894,8.8889-27.4972v-15.17q0-17.3-8.8889-27.4963-8.8886-10.1886-25.719-10.1927Q867.3108,39.2151,858.5438,49.4078Z"/><path d="M1117.1513,166.031l-68.5042-79.17V166.031h-48.1189V2.9485h45.7486l68.5043,80.3557V2.9485H1162.9V166.031Z"/></svg>