<?xml version="1.0" encoding="utf-8"?>
<!-- Generator: Adobe Illustrator 23.0.6, SVG Export Plug-In . SVG Version: 6.00 Build 0)  -->
<svg version="1.1" id="Layer_1" xmlns="http://www.w3.org/2000/svg" xmlns:xlink="http://www.w3.org/1999/xlink" x="0px" y="0px"
	 viewBox="0 0 2121.1 169.1" style="enable-background:new 0 0 2121.1 169.1;" xml:space="preserve">
<style type="text/css">
	.st0{fill:#0061E1;}
</style>
<path class="st0" d="M1262.7,3h140.9v39.1H1315v22.5h75.8V102H1315v24.9h90.2V166h-142.5V3z"/>
<path class="st0" d="M1539.8,166l-6.9-23h-57.1l-6.9,23h-53.5l59.5-163h60.9l59.5,163H1539.8z M1486.8,106.5h35.3l-17.1-58h-0.9
	L1486.8,106.5z"/>
<path class="st0" d="M1758.5,80c-5.4,8.1-13.2,14-23.4,17.8l36.2,68.2h-58.7l-28.9-59.5h-19.4V166H1612V3h99.7
	c11.7,0,21.7,2.3,30,6.8c7.9,4.1,14.4,10.4,18.7,18.2c4.2,7.7,6.4,16.3,6.3,25C1766.6,62.6,1763.8,72,1758.5,80z M1709,44.5
	c-2.7-2.8-6.5-4.4-10.4-4.3h-34.3v30.1h34.3c3.9,0.1,7.7-1.5,10.4-4.4c2.8-2.9,4.4-6.8,4.3-10.8C1713.4,51.2,1711.8,47.3,1709,44.5z
	"/>
<path class="st0" d="M1884.7,44.7V166h-52.3V44.7h-53.5V3h159.2v41.7L1884.7,44.7z"/>
<path class="st0" d="M2068.8,166v-61.8h-57.6V166h-52.3V3h52.3v59.5h57.6V3h52.3v163H2068.8z"/>
<path class="st0" d="M110,166v-61.9H52.4V166H0V2.9h52.4v59.5H110V2.9h52.4V166H110z"/>
<path class="st0" d="M197.5,2.9h141v39.1h-88.7v22.5h75.9V102h-75.9v24.9h90.3V166H197.5V2.9z"/>
<path class="st0" d="M515.3,80c-5.4,8.1-13.2,14-23.5,17.8l36.3,68.3h-58.8l-28.9-59.5H421V166h-52.4V2.9h99.8
	c11.7,0,21.7,2.3,30,6.8c7.9,4.1,14.4,10.5,18.7,18.3c4.2,7.7,6.3,16.3,6.3,25C523.5,62.6,520.7,72,515.3,80z M465.8,44.4
	c-2.7-2.8-6.5-4.3-10.4-4.3H421v30.1h34.4c3.9,0.1,7.7-1.5,10.4-4.4c2.8-2.9,4.4-6.8,4.3-10.8C470.2,51.1,468.6,47.2,465.8,44.4z"/>
<path class="st0" d="M553,2.9h141v39.1h-88.7v22.5h75.9V102h-75.9v24.9h90.3V166H553V2.9z"/>
<path class="st0" d="M949.3,21.7c15.3,14.4,23,35.3,23,62.8c0,27.5-7.7,48.4-23,62.8c-15.3,14.4-37.1,21.6-65.2,21.6
	c-28.1,0-49.8-7.2-65.1-21.5c-15.3-14.3-22.9-35.3-22.9-62.9c0-27.7,7.6-48.6,22.9-62.9C834.3,7.3,856,0.1,884.1,0.1
	C912.3,0.1,934,7.3,949.3,21.7z M858.5,49.4c-5.8,6.8-8.8,16-8.8,27.5v15.2c0,11.5,2.9,20.7,8.8,27.5c5.8,6.8,14.4,10.2,25.6,10.2
	c11.2,0,19.8-3.4,25.7-10.2c5.9-6.8,8.9-16,8.9-27.5V76.9c0-11.5-3-20.7-8.9-27.5c-5.9-6.8-14.5-10.2-25.7-10.2
	C872.9,39.2,864.4,42.6,858.5,49.4z"/>
<path class="st0" d="M1117.2,166l-68.5-79.2V166h-48.1V2.9h45.7l68.5,80.4V2.9h48.1V166H1117.2z"/>
</svg>
