<?xml version="1.0" encoding="utf-8"?>
<!-- Generator: Adobe Illustrator 23.0.6, SVG Export Plug-In . SVG Version: 6.00 Build 0)  -->
<svg version="1.1" id="Layer_1" xmlns="http://www.w3.org/2000/svg" xmlns:xlink="http://www.w3.org/1999/xlink" x="0px" y="0px"
	 viewBox="0 0 361.4 361.4" style="enable-background:new 0 0 361.4 361.4;" xml:space="preserve">
<style type="text/css">
	.st0{fill:url(#SVGID_1_);}
</style>
<linearGradient id="SVGID_1_" gradientUnits="userSpaceOnUse" x1="4.4568" y1="180.7" x2="356.9432" y2="180.7">
	<stop  offset="0" style="stop-color:#FF2E81"/>
	<stop  offset="0.1993" style="stop-color:#F0A155"/>
	<stop  offset="0.221" style="stop-color:#E2A351"/>
	<stop  offset="0.2623" style="stop-color:#BBA845"/>
	<stop  offset="0.319" style="stop-color:#7EAF32"/>
	<stop  offset="0.3881" style="stop-color:#2ABA19"/>
	<stop  offset="0.4205" style="stop-color:#00BF0C"/>
	<stop  offset="0.6277" style="stop-color:#00BBE8"/>
	<stop  offset="0.8201" style="stop-color:#4F38FF"/>
	<stop  offset="1" style="stop-color:#EC00DB"/>
</linearGradient>
<path class="st0" d="M50.6,179.1L4.5,173l4.3-32.4l10.1,1.3l-2.6,19.9l7.9,1.1l2.4-17.9l10.1,1.3l-2.4,17.9l18,2.4L50.6,179.1z
	 M50.3,98.6c4.7,2.1,8.3,4.8,10.8,8c2.4,3.3,3.8,6.9,4.1,10.7c0.3,3.9-0.4,7.7-2.1,11.6c-1.7,3.9-4.1,7-7.2,9.4
	c-3.1,2.4-6.6,3.8-10.7,4.2c-4.1,0.4-8.4-0.4-13.2-2.5c-4.7-2.1-8.3-4.8-10.8-8c-2.4-3.3-3.8-6.8-4.1-10.7
	c-0.3-3.9,0.4-7.7,2.1-11.6c1.7-3.9,4.1-7,7.1-9.4c3.1-2.4,6.6-3.8,10.7-4.2C41.1,95.7,45.5,96.5,50.3,98.6z M45,110.5
	c-2.6-1.1-4.9-1.7-6.9-1.8c-2-0.1-3.8,0.3-5.3,1.2c-1.5,0.9-2.6,2.3-3.5,4.2c-0.8,1.9-1.1,3.7-0.8,5.4c0.3,1.7,1.2,3.3,2.7,4.7
	c1.5,1.4,3.5,2.7,6,3.9c2.6,1.1,4.9,1.7,6.9,1.8c2,0.1,3.8-0.3,5.3-1.2c1.5-0.9,2.6-2.3,3.5-4.2c0.8-1.9,1.1-3.7,0.8-5.4
	c-0.3-1.7-1.2-3.3-2.7-4.7C49.6,112.9,47.6,111.6,45,110.5z M54.4,58.3l8.4-9.4l22.3,19.8c2.6,2.4,4.4,5,5.2,8
	c0.8,3,0.7,6.1-0.2,9.2c-1,3.2-2.8,6.3-5.4,9.2c-2.7,3-5.5,5.2-8.6,6.5s-6.1,1.7-9.1,1.3c-3-0.5-5.9-1.9-8.5-4.2L36.1,78.9l8.4-9.4
	L66,88.6c1.1,1,2.2,1.6,3.5,1.9c1.3,0.3,2.5,0.2,3.7-0.2c1.2-0.4,2.3-1.2,3.3-2.2c1-1.1,1.6-2.3,1.9-3.5c0.3-1.3,0.2-2.5-0.2-3.7
	c-0.4-1.2-1.2-2.3-2.2-3.3L54.4,58.3z M106.5,20.2l24.2,39.7l-9,5.5L94.6,53.3l-0.2,0.1l12.7,20.9l-10.8,6.6L72.1,41.1l9.2-5.6
	l26.8,12.2l0.3-0.2L95.7,26.8L106.5,20.2z M146.6,56.2l-17.4,4.4l-11.4-45.1l17.2-4.3c4.6-1.2,8.9-1.3,12.7-0.3s7.1,2.9,9.8,5.8
	c2.7,2.9,4.6,6.7,5.8,11.4c1.2,4.7,1.3,9,0.3,12.8s-2.9,7.1-5.8,9.7C154.9,53.1,151.1,55,146.6,56.2z M138.8,47l4.7-1.2
	c2.2-0.6,4-1.4,5.4-2.5c1.4-1.1,2.3-2.7,2.7-4.6c0.4-2,0.2-4.5-0.6-7.7c-0.8-3.1-1.8-5.5-3.1-7c-1.3-1.6-2.8-2.5-4.6-2.8
	c-1.8-0.3-3.9-0.2-6.2,0.4l-4.3,1.1L138.8,47z M176.4,51.3l-13.6-0.6l17.5-45.8l17.3,0.8l13.2,47.2l-13.6-0.6l-8.6-34.2l-0.4,0
	L176.4,51.3z M174.8,32.8l25.6,1.2l-0.4,9.4l-25.6-1.2L174.8,32.8z M211.9,17l3.1-9.7l38.5,12.4l-3.1,9.7L237.1,25L226,59.7
	l-11.9-3.8l11.1-34.6L211.9,17z M270.5,29.6l-22.4,40.8L237,64.4l22.4-40.8L270.5,29.6z M297.6,80.5c-3.4,3.9-7,6.5-10.9,7.9
	c-3.9,1.4-7.7,1.6-11.5,0.7s-7.3-2.7-10.4-5.4c-3.2-2.8-5.5-6-6.9-9.6s-1.6-7.4-0.8-11.4c0.8-4,2.9-7.9,6.3-11.8
	c3.4-3.9,7-6.5,10.9-7.9c3.8-1.4,7.7-1.6,11.4-0.8c3.8,0.9,7.3,2.7,10.5,5.5c3.2,2.8,5.5,6,6.8,9.6c1.4,3.6,1.7,7.4,0.9,11.4
	C303.1,72.7,301,76.6,297.6,80.5z M287.8,72c1.8-2.1,3.1-4.1,3.8-6c0.7-1.9,0.8-3.7,0.4-5.4s-1.4-3.2-3-4.6c-1.6-1.4-3.2-2.2-5-2.3
	c-1.7-0.2-3.5,0.2-5.3,1.2c-1.8,1-3.6,2.5-5.5,4.6c-1.8,2.1-3.1,4.1-3.8,6c-0.7,1.9-0.8,3.7-0.4,5.4c0.4,1.7,1.4,3.2,3,4.6
	s3.2,2.2,5,2.3c1.7,0.2,3.5-0.2,5.3-1.2C284.2,75.7,286,74.1,287.8,72z M341.5,107.3l-39.9,24l-5.4-9l12.2-27l-0.1-0.2l-20.9,12.6
	l-6.5-10.8l39.9-24l5.5,9.2l-12.3,26.8l0.2,0.3L335,96.5L341.5,107.3z M306.4,155c-0.7-3.2-0.7-6.4,0-9.5c0.6-3.1,1.8-5.9,3.5-8.5
	c1.7-2.6,3.9-4.8,6.5-6.6s5.5-3,8.8-3.7c3.3-0.6,6.4-0.6,9.5,0s5.9,1.8,8.5,3.5c2.6,1.7,4.8,3.9,6.6,6.5c1.8,2.6,3,5.5,3.7,8.7
	c0.7,3.3,0.7,6.4,0,9.5c-0.6,3.1-1.8,5.9-3.5,8.5c-1.7,2.6-3.9,4.8-6.5,6.6c-2.6,1.8-5.5,3-8.8,3.7c-3.2,0.7-6.4,0.7-9.5,0.1
	c-3.1-0.6-5.9-1.8-8.5-3.5c-2.6-1.7-4.8-3.9-6.6-6.5S307.1,158.3,306.4,155z M310.7,179l46.3,4.9l-3.5,32.5l-10.1-1.1l2.1-20l-8-0.8
	l-1.9,18l-10.1-1.1l1.9-18l-18.1-1.9L310.7,179z M313.1,259.5c-4.8-2-8.5-4.6-11-7.8c-2.5-3.2-4-6.8-4.4-10.6
	c-0.4-3.9,0.2-7.7,1.8-11.6c1.6-3.9,3.9-7.1,6.9-9.6c3-2.5,6.5-3.9,10.6-4.5c4-0.5,8.5,0.2,13.2,2.2c4.8,2,8.5,4.6,11,7.8
	c2.5,3.2,4,6.7,4.4,10.6c0.4,3.9-0.2,7.7-1.8,11.7c-1.6,3.9-3.9,7.1-6.9,9.6c-3,2.5-6.5,4-10.6,4.5
	C322.3,262.2,317.8,261.5,313.1,259.5z M318,247.5c2.6,1.1,4.9,1.6,6.9,1.7c2.1,0,3.8-0.4,5.3-1.3c1.5-0.9,2.6-2.4,3.4-4.3
	s1-3.8,0.6-5.5c-0.4-1.7-1.3-3.3-2.8-4.7c-1.5-1.4-3.5-2.6-6.1-3.7c-2.6-1.1-4.9-1.6-6.9-1.7c-2.1,0-3.8,0.4-5.3,1.4
	c-1.5,0.9-2.6,2.4-3.4,4.3s-1,3.8-0.6,5.5c0.4,1.7,1.3,3.3,2.8,4.7C313.4,245.2,315.4,246.4,318,247.5z M309.9,299.9l-8.2,9.6
	L279,290.3c-2.7-2.3-4.5-4.9-5.4-7.9c-0.9-3-0.9-6,0-9.2c0.9-3.2,2.6-6.3,5.2-9.4c2.6-3.1,5.4-5.3,8.4-6.7c3-1.4,6.1-1.9,9.1-1.5
	c3.1,0.4,5.9,1.7,8.6,4l22.8,19.3l-8.2,9.6l-21.9-18.6c-1.1-0.9-2.3-1.5-3.6-1.8c-1.3-0.2-2.5-0.1-3.7,0.3c-1.2,0.5-2.3,1.2-3.2,2.3
	c-0.9,1.1-1.5,2.3-1.8,3.6c-0.2,1.3-0.1,2.5,0.3,3.7c0.5,1.2,1.2,2.3,2.3,3.2L309.9,299.9z M258.8,339.3l-25.2-39.1l8.9-5.7
	l27.4,11.4l0.2-0.1l-13.3-20.5l10.6-6.9l25.2,39.1l-9,5.8l-27.1-11.5l-0.3,0.2l13.2,20.5L258.8,339.3z M217.9,304.4l17.2-4.8
	l12.5,44.8l-17.1,4.8c-4.6,1.3-8.8,1.5-12.7,0.7c-3.9-0.8-7.2-2.7-9.9-5.5c-2.8-2.8-4.8-6.6-6.1-11.3c-1.3-4.7-1.5-8.9-0.6-12.8
	c0.9-3.9,2.8-7.1,5.6-9.9C209.6,307.7,213.3,305.7,217.9,304.4z M225.9,313.3l-4.6,1.3c-2.2,0.6-4,1.5-5.4,2.7
	c-1.4,1.2-2.2,2.7-2.6,4.7s-0.1,4.5,0.8,7.7c0.9,3.1,2,5.4,3.3,7s2.9,2.4,4.7,2.7c1.8,0.3,3.9,0.1,6.2-0.6l4.3-1.2L225.9,313.3z
	 M188.2,310l13.6,0.3l-16.4,46.2l-17.3-0.4l-14.4-46.9l13.6,0.3l9.5,33.9l0.4,0L188.2,310z M190.3,328.4l-25.6-0.6l0.2-9.5l25.6,0.6
	L190.3,328.4z M153.5,345.2l-2.9,9.8l-38.8-11.4l2.9-9.8l13.4,3.9l10.2-34.9l12,3.5l-10.2,34.9L153.5,345.2z M94.7,334.1l21.3-41.4
	l11.2,5.8l-21.3,41.4L94.7,334.1z M66.2,283.9c3.3-4,6.9-6.7,10.7-8.2c3.8-1.5,7.6-1.8,11.4-1c3.8,0.8,7.3,2.5,10.6,5.2
	c3.3,2.7,5.6,5.8,7.1,9.4s1.8,7.4,1.1,11.4c-0.7,4-2.7,8-6,12c-3.3,4-6.9,6.7-10.7,8.2c-3.8,1.5-7.6,1.8-11.4,1
	c-3.8-0.8-7.3-2.5-10.6-5.2c-3.2-2.7-5.6-5.8-7.1-9.4s-1.9-7.4-1.2-11.4C60.9,291.9,62.9,287.9,66.2,283.9z M76.3,292.2
	c-1.8,2.2-3,4.2-3.6,6.1c-0.7,1.9-0.7,3.8-0.3,5.4s1.5,3.2,3.1,4.5c1.6,1.3,3.3,2.1,5,2.2c1.7,0.1,3.5-0.3,5.3-1.3
	c1.8-1,3.6-2.6,5.3-4.7c1.8-2.1,3-4.2,3.6-6.1c0.7-1.9,0.7-3.8,0.3-5.4s-1.5-3.2-3.1-4.5c-1.6-1.3-3.3-2.1-5-2.2
	c-1.7-0.1-3.5,0.3-5.3,1.3C79.8,288.4,78,290,76.3,292.2z M21.7,258.2l39.2-25.1l5.7,8.9l-11.6,27.3l0.1,0.2l20.6-13.2l6.8,10.6
	l-39.2,25.1l-5.8-9l11.6-27.1l-0.2-0.3l-20.5,13.1L21.7,258.2z M55.5,209.7c0.7,3.2,0.8,6.4,0.3,9.5c-0.6,3.1-1.7,6-3.3,8.6
	c-1.7,2.6-3.8,4.9-6.3,6.8c-2.5,1.9-5.4,3.2-8.7,3.9s-6.4,0.8-9.5,0.2c-3.1-0.6-6-1.7-8.6-3.3s-4.9-3.7-6.8-6.3
	c-1.9-2.5-3.2-5.4-3.9-8.6c-0.7-3.2-0.8-6.4-0.3-9.5c0.6-3.1,1.7-6,3.3-8.6c1.7-2.6,3.8-4.9,6.3-6.7c2.5-1.9,5.4-3.2,8.7-3.9
	s6.4-0.9,9.5-0.3c3.1,0.6,6,1.7,8.6,3.3c2.6,1.6,4.9,3.7,6.8,6.3C53.5,203.5,54.8,206.4,55.5,209.7z"/>
</svg>
